<?xml version="1.0" encoding="utf-8"?>
<svg preserveversion="1.1" xmlns="http://www.w3.org/2000/svg" xmlns:xlink="http://www.w3.org/1999/xlink" x="0px" y="0px"
	viewBox="0 0 1800 1000">
	<defs>
		<clipPath id="codeSectionMask">
			<path d="
						M 900,0 
						C 900,0,900,00,900,200 
						S 900,200,900,400
						S 900,400,900,600
						S 900,600,900,800
						S 900,900,900,1000
						L 0,1000 L 0,0 L 900,0" >
				<animate attributeType="XML" attributeName="d"
					id="codeSideDefualtAnimation"
					dur="35s" fill="freeze" repeatCount="indefinite"
					values="
						M 900,0 
						C 900,0,900,00,900,00 
						S 900,00,900,00
						S 850,62.5,850,250
						S 950,562.5,950,750
						S 900,1000,900,1000
						L 00,1000 L 0,0 L 900,0;
						M 900,0 
						C 900,0,900,00,900,00 
						S 900,00,900,00
						S 950,62.5,950,250
						S 850,562.5,850,750
						S 900,1000,900,1000
						L 00,1000 L 0,0 L 900,0;
						M 900,0 
						C 900,0,900,00,900,00 
						S 900,00,900,00
						S 850,62.5,850,250
						S 950,562.5,950,750
						S 900,1000,900,1000
						L 0,1000 L 0,0 L 900,0"/>
				<animate attributeType="XML" attributeName="d"
					begin="none" id="codeCenter"
					dur=".2s" fill="freeze" repeatCount="1"
					to="
						M 900,0 
						C 900,0,900,00,900,00 
						S 900,00,900,00
						S 800,62.5,800,25
						S 1000,562.5,1000,750
						S 900,1000,900,1000
						L 0,100 L 0,0 L 90,0"/>
				<animate attributeType="XML" attributeName="d"
					begin="none" id="codeCloseHalf"
					dur=".2s" fill="freeze" repeatCount="1"
					to="
						M 900,0 
						C 900,0,500,00,500,200 
						S 700,200,700,400
						S 900,400,900,600
						S 400,600,400,800
						S 100,900,100,1000
						L 0,1000 L 0,0 L 100,0"/>
				<animate attributeType="XML" attributeName="d"
					begin="none" id="codeOpenHalf"
					dur=".2s" fill="freeze" repeatCount="1"
					to="
						M 900,0 
						C 900,0,1100,00,1100,200 
						S 900,200,900,400
						S 1600,400,1600,60
						S 1000,600,1000,80
						S 1300,900,1300,100
						L 0,1000 L 0,0 L 900,0"/>
				<animate attributeType="XML" attributeName="d"
					begin="codeCloseHalf.end" id="codeClose"
					dur=".3s" fill="freeze" repeatCount="1"
					to="
						M 100,0 
						C 100,0,100,00,100,200 
						S 100,200,100,400
						S 100,400,100,600
						S 100,600,100,800
						S 100,900,100,1000
						L 0,1000 L 0,0 L 100,0"/>
				<animate attributeType="XML" attributeName="d"
					begin="codeOpenHalf.end" id="codeOpen"
					dur=".3s" fill="freeze" repeatCount="1"
					to="
						M 1700,0 
						C 1700,0,1700,00,1700,200 
						S 1700,200,1700,400
						S 1700,400,1700,600
						S 1700,600,1700,800
						S 1700,900,1700,1000
						L 0,1000 L 0,0 L 1700,0"/>
			</path>
		</clipPath>
		<clipPath id="designSectionMask">
			<path d="
					M 900,0 
					C 900,0,900,00,900,200 
					S 900,200,900,400
					S 900,400,900,600
					S 900,600,900,800
					S 900,900,900,1000
					L 1800,100 L 1800,0 L 900,0">
				<animate attributeType="XML" attributeName="d"
					id="designSideDefaultAnimation"
					dur="35s" fill="freeze" repeatCount="indefinite"
					values="
						M 900,0 
						C 900,0,900,00,900,00 
						S 900,00,900,00
						S 850,62.5,850,250
						S 950,562.5,950,750
						S 900,1000,900,1000
						L 1800,1000 L 1800,0 L 900,0;
						M 900,0 
						C 900,0,900,00,900,00 
						S 900,00,900,00
						S 950,62.5,950,250
						S 850,562.5,850,750
						S 900,1000,900,1000
						L 1800,1000 L 1800,0 L 900,0;
						M 900,0 
						C 900,0,900,00,900,00 
						S 900,00,900,00
						S 850,62.5,850,250
						S 950,562.5,950,750
						S 900,1000,900,1000
						L 1800,1000 L 1800,0 L 900,0"/>
				<animate attributeType="XML" attributeName="d"
					begin="none" id="designCenter"
					dur=".2s" fill="freeze" repeatCount="1"
					to="
						M 900,0 
						C 900,0,900,00,900,00 
						S 900,00,900,00
						S 800,62.5,800,250
						S 1000,562.5,1000,750
						S 900,1000,900,1000
						L 1800,1000 L 1800,0 L 900,0"/>
				<animate attributeType="XML" attributeName="d"
					begin="none" id="designOpenHalf"
					dur=".2s" fill="freeze" repeatCount="1"
					to="
						M 900,0 
						C 900,0,500,00,500,200 
						S 700,200,700,400
						S 900,400,900,600
						S 400,600,400,800
						S 100,900,100,1000
						L 1800,1000 L 1800,0 L 900,0"/>
				<animate attributeType="XML" attributeName="d"
					begin="none" id="designCloseHalf"
					dur=".2s" fill="freeze" repeatCount="1"
					to="
						M 900,0 
						C 900,0,1100,00,1100,200 
						S 900,20,90,40
						S 1600,400,1600,600
						S 1000,600,1000,800
						S 1300,900,1300,1000
						L 1800,1000 L 1800,0 L 900,0"/>
				<animate attributeType="XML" attributeName="d"
					begin="designOpenHalf.end" id="designOpen"
					dur=".3s" fill="freeze" repeatCount="1"
					to="
						M 200,0 
						C 200,0,200,00,200,200 
						S 200,200,200,400
						S 200,400,200,600
						S 200,600,200,800
						S 200,900,200,1000
						L 1800,1000 L 1800,0 L 200,0"/>
				<animate attributeType="XML" attributeName="d"
					begin="designCloseHalf.end" id="designClose"
					dur=".3s" fill="freeze" repeatCount="1"
					to="
						M 1600,0 
						C 1600,0,1600,00,1600,20 
						S 1600,200,1600,400
						S 1600,400,1600,600
						S 1600,600,1600,800
						S 1600,900,1600,1000
						L 1800,1000 L 1800,0 L 1600,0"/>
			</path>
		</clipPath>   
		<filter id="duoToneFilter">
            <feColorMatrix type="matrix" result="gray" values="1 0 0 0 0
                        1 0 0 0 0
                        1 0 0 0 0
                        0 0 0 1 0">
            </feColorMatrix>
            <feComponentTransfer color-interpolation-filters="sRGB"> 
                <feFuncR type="table" tableValues="0.12941176470588237 0.9333333333333333"></feFuncR>
                <feFuncG type="table" tableValues="0.08627450980392157 0.9333333333333333"></feFuncG>
                <feFuncB type="table" tableValues="0.25098039215686274 0.9333333333333333"></feFuncB>
                <feFuncA type="table" tableValues="0 1"></feFuncA>
            </feComponentTransfer>        
        </filter>
	</defs>

<style type="text/css">
	.st0{fill:#8C031E;}
	.st1{fill:#D69476;}
	.st2{fill:#CE866A;}
	.st3{fill:#BC735C;}
	.st4{fill:#BA0822;}
	.st5{fill:#E6A685;}
	.st6{fill:#111111;}
	.st7{fill:#141414;}
	.st8{fill:url(#SVGID_1_);}
	.st9{fill:url(#SVGID_2_);}
	.st10{fill:#1C1C1C;}
	.st11{fill:#EDB298;}
	.st12{fill:#DB9E86;}
	.st13{fill:#DD9C83;}
	.st14{fill:#E8AA97;}
	.st15{fill:#E8A691;}
	.st16{fill:#D19479;}
	.st17{fill:#DB9EA7;}
	.st18{fill:#E59188;}
	.st19{fill:#E89A9A;}
	.st20{fill:#EAACB3;}
	.st21{fill:#FFFFFF;}
	.st22{fill:#232323;}
	.st23{fill:#1E1917;}
	.st24{fill:#F9F9F9;}
	.st25{fill:none;}
</style>
<rect fill="#211640" clip-path="url(#codeSectionMask)" id="codeSectionBGColor" x="0" y="0" width="1800" height="1000"></rect>
<rect fill="#EEEEEE" clip-path="url(#designSectionMask)" id="designSectionBGColor" x="0" y="0" width="1800" height="1000"></rect>
<g filter="url(#duoToneFilter)" clip-path="url(#codeSectionMask)" id="myAvatarShape">
	<g id="myAvatarShapeBody">
		<path class="st0" d="M808,575.5c-14.6-10.3-32.2-19.2-22.3-27.1c10-7.9,57.6,9.7,57.6,9.7S989.9,603.9,972,671
			c-0.9,8.4-17.6,4.9-17.6,4.9c-1.5-21.5-14.2-39.5-17.9-40.5C932.9,634.4,839.2,597.6,808,575.5z"/>
		<path class="st1" d="M789.8,496.1c0,0,13.4,33.2,13.4,55.6s0,47.5,0,47.5l126.8,72c0,0,6.3-76.5,19.7-101.6
			C962.9,544.4,789.8,496.1,789.8,496.1z"/>
		<path class="st2" d="M803.2,587.5v-35.9c0-8.2-1.8-17.6-4-26.6l-0.2-7.1c0,1.2,19.5,72.8,32.2,87.6L803.2,587.5z"/>
		<path class="st3" d="M940.5,596.5c-3.3,13.1-6,28.1-8.2,41.6c-1,2.3-1.8,4.1-2.3,5.2c-3.7,7.1-18-4.9-18-4.9l7.1-47.5
			C919.7,591.2,932.1,594.3,940.5,596.5z"/>
		<path class="st2" d="M850.4,570.7c0.4,1,22.5,30.9,34.7,44.7c12.2,13.7,15.6,26.8,15.6,26.8s16.4,6.1,18.3,0s13.1-38.4,13.1-38.4
			L850.4,570.7z"/>
		<path class="st4" d="M954.4,675.9c0,0,3.7-37.7-29.2-45.9c-32.9-8.2-163-75.6-134.7-83.5c0,0-15-5-6.9,43.3
			C783.7,589.9,898.9,673.5,954.4,675.9z"/>
	</g>
	<g id="myAvatarShapeFace">
		<path class="st5" d="M792.9,442.3c0,0-19.6-10.3-24.9,0.9c-5.4,11.2-3.5,37.8,7.4,56.3c11,18.5,17.2,22.3,31.5,21.8
			c8.5-0.2,9-5.2,9-5.2s9.6,38.4,38.7,55c29.2,16.7,52.2,32.7,79.9,30.5c27.7-2.2,38.6-29.1,43.6-42.8c5-13.7,17.9-47.8,17.8-68.1
			c-0.1-20.3,1.2-109-5.1-132.3c-6.3-23.2-11.1-41.7-22.6-41.4c-11.6,0.4-158.3-1.7-159.4,38.6C807.8,396.1,792.9,442.3,792.9,442.3
			z"/>
		<path class="st6" d="M924.5,555.8l1.9,11l1.8-0.1l1.9,2.1h1.2l3.5,3.8l2.2-1.7l1.2,1.6l2.3-2.3l2.8-0.4l-0.1-4.3l1.6,1.2l-0.1-3.7
			l3.8-4l1.2-5.8c0,0-4.3,2.6-10.1,3.7C933.2,557.8,925.1,557.3,924.5,555.8z"/>
		<path class="st7" d="M880.7,586.4c0,0,39.3,14.2,49.9,13.1c10.6-1.1,20.3-3,37.2-18.1l-2.2,5.4l-0.4-0.7l-3,5.4l-0.4-1.2l-2.9,4.3
			l-0.1-1.7l-9.2,9.1l-1.5-0.6l-5.2,2.9l-0.1-1.1l-1.3,1.6l-1.5-1l-1,1.8l-1.1-1.5l-2.7,1.6l-1.6-1.1l-1.6,1.1l-3.5-1.2l-4.7,3.9
			l-2.3-3l-5.8-2.6C915.7,602.8,900.7,598,880.7,586.4z"/>
		<path class="st6" d="M997.8,397.6c-1.5,4-1.5,21.9-1.2,33.8c-1.1-21.8-5.1-46.7-7.3-61.8c-2.8-17.9-13.9-40.3-18.3-35.6
			c-24,25.7-53.5,29.2-76.2,32.7c-14.1,2.2-45.6,0.2-45.6,0.2s-0.6-0.1-1.7-0.2c-1.9,4.7-5.5,9.7-11.3,10.1c-11.3,1-13.7-11-13.7-11
			s2.9,6.2,10,7.2c5.4,0.9,7.2-3.2,7.7-7.2c-5.4-0.7-11.9-1.5-15.7-1.9c-19-2.8-1.7,40-1.7,40s-11.2,2.8-13.9,23
			c-2.6,20.2,12.2,79.3,12.2,79.3l-6.9,4.3l-3.2-10.6c-3.9-23.6-9.6-33.1-16.8-45.1c-7.1-11.9-11.3-11.2-14.8-14.1
			c-3.5-2.9-2.4-7.2-10.7-29.8s-0.1-52.1,0.9-57.1c1.1-4.9-2.3-4.5-4.5-6.9c-2.2-2.4-1.5-16.2,1.6-19s4.7-5.4,8.4-15.8
			c3.7-10.5,17.8-22.8,18.6-22.8c0.9,0-4.3-0.2-4.7-2.1c-0.5-1.8,12.7-13.6,24.8-20.3c12.2-6.7,17.4-1,16.9-2.4
			c-0.4-1.5,1.6-5.8,17.9-10.7c24.1-7.2,54,3.7,52.8,1c-1.2-2.7-11.7-5.1-11.7-5.1c13.7-0.9,20.9,5.7,29.4,6.1
			c8.5,0.4,9.4,8.5,15.3,10.2c5.8,1.6,5.2-0.1,11.7,2.7c6.4,2.8,11.1,3.3,11.1,3.3c-4-9.6-9.2-11-9.2-11c39.8,7.2,43.1,32.4,42.7,46
			c-0.4,13.6-1.6,35.4,1.8,41.7C995.6,354.9,1000,391.4,997.8,397.6z"/>
	</g>
</g>
<g filter="url(#duoToneFilter)" clip-path="url(#designSectionMask)" id="myAvatar">
	<g id="myAvatarBody">
		
			<radialGradient id="SVGID_1_" cx="945.4097" cy="-236.4146" r="185.5716" fx="940.9532" fy="-242.1373" gradientTransform="matrix(0.9858 0.1777 8.311664e-02 -0.4601 -27.312 351.7491)" gradientUnits="userSpaceOnUse">
			<stop  offset="0.4642" style="stop-color:#BE1E2D"/>
			<stop  offset="0.571" style="stop-color:#BF212F;stop-opacity:0.7793"/>
			<stop  offset="0.6394" style="stop-color:#C12938;stop-opacity:0.6382"/>
			<stop  offset="0.6969" style="stop-color:#C63845;stop-opacity:0.5193"/>
			<stop  offset="0.7484" style="stop-color:#CC4D59;stop-opacity:0.4128"/>
			<stop  offset="0.796" style="stop-color:#D36872;stop-opacity:0.3146"/>
			<stop  offset="0.8406" style="stop-color:#DD8991;stop-opacity:0.2224"/>
			<stop  offset="0.883" style="stop-color:#E8B1B6;stop-opacity:0.1349"/>
			<stop  offset="0.9224" style="stop-color:#F5DEE0;stop-opacity:5.329067e-02"/>
			<stop  offset="0.9482" style="stop-color:#FFFFFF;stop-opacity:0"/>
		</radialGradient>
		<path class="st8" d="M794.2,589.7c0,0-56.2,58.5-63.3,65.4c-7.1,6.9-13.4,19.3-18.7,27.8s-18,48.8-27.4,54.5l317.6-9.9
			c0,0-3.2-15-9.2-29.6c-6.3-15.2-15.5-34-15.5-34c-7.5,9.6-12.9,14.8-17.6,11.3S806,589.4,794.2,589.7z"/>
		
			<linearGradient id="SVGID_2_" gradientUnits="userSpaceOnUse" x1="860.9583" y1="-350.2634" x2="860.9583" y2="-313.7289" gradientTransform="matrix(1.0053 -3.119271e-02 -3.056408e-02 -0.985 10.3448 399.5209)">
			<stop  offset="0" style="stop-color:#FFFFFF;stop-opacity:0"/>
			<stop  offset="0.1541" style="stop-color:#EEC5C9;stop-opacity:0.1541"/>
			<stop  offset="0.3092" style="stop-color:#E0939A;stop-opacity:0.3092"/>
			<stop  offset="0.4626" style="stop-color:#D46973;stop-opacity:0.4626"/>
			<stop  offset="0.611" style="stop-color:#CA4854;stop-opacity:0.611"/>
			<stop  offset="0.7529" style="stop-color:#C3313F;stop-opacity:0.7529"/>
			<stop  offset="0.8856" style="stop-color:#BF2332;stop-opacity:0.8856"/>
			<stop  offset="1" style="stop-color:#BE1E2D"/>
		</linearGradient>
		<path class="st9" d="M811.8,579.1c-15-9.9-32.9-18.3-23.2-26.5c9.8-8.2,58,8,58,8s148.4,41.3,132.6,109.1
			c-8.5,36.1-9.8,30.4,0.6,58.5l-4.3,0.1c0,0-13.8-31.1-15.9-52.6c-2.1-21.5-13.4-39.8-17.1-40.7
			C938.8,634.2,843.7,600.2,811.8,579.1z"/>
		<g id="neck_1_">
			<path class="st1" d="M791,500c0,0,14.5,32.9,15.2,55.3c0.7,22.4,1.5,47.5,1.5,47.5l129.4,68.2c0,0,4-76.9,16.6-102.4
				C966.2,543,791,500,791,500z"/>
			<path class="st2" d="M807.3,591.2l-1.1-36c-0.3-8.2-2.4-17.6-4.9-26.6l-0.5-7.1c0,1.2,21.8,72.3,35.1,86.8L807.3,591.2z"/>
			<path class="st3" d="M945.3,595.9c-2.9,13.3-5.1,28.3-6.9,41.9c-0.9,2.3-1.7,4.2-2.2,5.3c-3.4,7.2-18.2-4.3-18.2-4.3l5.6-47.8
				C924.3,591.3,936.9,594,945.3,595.9z"/>
			<path class="st2" d="M854.1,572.9c0.4,1,23.5,30.3,36.2,43.7s16.4,26.3,16.4,26.3s16.7,5.6,18.3-0.6c1.6-6.2,12-38.9,12-38.9
				L854.1,572.9z"/>
		</g>
		<path class="st4" d="M961.7,675.1c0,0,2.5-37.9-30.7-45c-33.2-7.1-165.8-70.6-137.7-79.4c0,0-15.2-4.5-5.6,43.6
			C787.9,594.2,906,674.4,961.7,675.1z"/>
		<g id="Strokes_1_">
			<g>
				<path class="st10" d="M806.7,571.9c-0.6-2.3-0.9-4.6-1.2-6.8c-0.3-2.3-0.5-4.5-0.6-6.8c-0.1-2.3-0.1-4.5-0.1-6.8
					s0.1-4.5,0.3-6.8c0.9,2.2,1.4,4.5,1.7,6.8c0.3,2.3,0.5,4.6,0.7,6.8c0.1,2.3,0.1,4.6,0.1,6.8
					C807.3,567.3,807.1,569.6,806.7,571.9z"/>
			</g>
			<g>
				<path class="st10" d="M791.4,551.3c-0.7,1-0.8,2.2-0.6,3.3l0.1,0.8c0,0.2,0.1,0.6,0.3,0.8l0.3,0.8c0.1,0.2,0.3,0.5,0.4,0.7
					c0.5,1.1,1.2,1.9,1.9,2.9s1.5,1.8,2.3,2.6c3.3,3.3,7,6,10.9,8.7c3.9,2.6,8,4.9,12.1,7.2l6.2,3.2l6.3,3.1
					c16.7,8.3,33.4,16.9,50.4,24.7c8.4,3.9,17.1,7.6,25.7,11c4.3,1.7,8.8,3.3,13.2,4.7c4.4,1.3,9,2.6,13.4,4.2
					c4.4,1.7,8.8,3.6,12.7,6.6c1,0.7,1.9,1.5,2.9,2.2c0.9,0.8,1.8,1.7,2.5,2.6c0.8,1,1.5,1.9,2.3,2.9c0.6,1,1.3,2,1.9,3.1
					c2.3,4.2,3.7,8.8,4.6,13.5c1,4.6,1.1,9.4,1.3,14.1l0,0.6l-0.6,0c-3.5,0.5-7,0.1-10.3-0.4c-3.3-0.5-6.6-1.3-10-2.1
					s-6.5-1.9-9.6-3l-4.7-1.8l-4.7-1.9l4.7,1.7l4.8,1.6c3.2,1,6.4,2,9.7,2.6c3.3,0.8,6.5,1.4,9.9,1.8c1.7,0.2,3.3,0.3,5,0.3
					c1.6,0.1,3.4,0,4.9-0.3l-0.6,0.6c-0.3-4.6-0.5-9.3-1.6-13.7c-1-4.5-2.4-9-4.7-12.9c-2.3-4-5.5-7.3-9.1-10
					c-3.7-2.7-8-4.5-12.3-6.2c-4.3-1.6-8.8-2.8-13.3-4.1c-4.6-1.4-9-2.9-13.3-4.6c-8.8-3.4-17.3-7.3-25.9-11.2
					c-17-8-33.6-16.5-50.1-25.3c-8.3-4.4-16.6-8.8-24.3-14.1c-3.8-2.8-7.5-5.6-10.8-9.1c-0.8-1-1.5-1.8-2.3-2.7
					c-0.6-1-1.4-1.9-1.8-3c-0.1-0.2-0.3-0.5-0.4-0.8l-0.3-0.8c-0.1-0.2-0.1-0.6-0.3-0.8l-0.1-0.8
					C790.5,553.5,790.7,552.2,791.4,551.3z"/>
			</g>
			<g>
				<path class="st10" d="M979.6,667.8c2.4,3.1,4.6,6.3,6.5,9.7c1.9,3.4,3.8,6.8,5.4,10.3c1.6,3.6,3.2,7.2,4.2,10.8
					c1.2,3.7,2.2,7.5,2.6,11.4c-1.5-3.6-2.9-7.2-4.4-10.7c-1.6-3.5-3.1-7-4.7-10.6C986.1,681.9,982.7,674.9,979.6,667.8z"/>
			</g>
			<g>
				<path class="st10" d="M816.2,612.4c-2.5-1.3-5-2.8-7.3-4c-2.5-1.4-4.8-2.8-7.3-4.2c-2.4-1.4-4.9-2.9-7.2-4.3
					c-2.4-1.5-4.7-2.9-7.1-4.5l1.5-0.2c-3.5,4-7.2,7.9-10.9,11.9c-3.7,3.9-7.3,7.9-11,11.7c-3.7,3.9-7.5,7.8-11.2,11.6
					c-1.9,1.9-3.8,3.8-5.7,5.7s-3.8,3.8-5.8,5.7c1.6-2.1,3.4-4.1,5.2-6.1s3.4-4.1,5.2-6.1c3.5-4,7.1-8,10.6-12
					c3.5-4,7.2-7.9,10.9-11.9c3.7-3.9,7.3-7.9,11-11.8l0.7-0.8l0.8,0.6c2.1,1.6,4.6,3.2,6.9,4.8l7,4.7c2.4,1.5,4.6,3.2,7,4.8
					C811.5,609.2,813.9,610.7,816.2,612.4z"/>
			</g>
		</g>
	</g>
	<g id="myAvatarFace">
		<g id="Face_2_">
			<path class="st5" d="M792.1,443c0,0-19.6-10.4-25,0.8c-5.4,11.1-3.7,37.9,7.2,56.5s17.2,22.4,31.6,22c8.5-0.3,9-5.2,9-5.2
				s9.5,38.5,38.7,55.3c29.2,16.8,52.3,32.9,80.1,30.8c27.8-2.1,38.8-29,43.9-42.8c5.1-13.8,18.1-47.9,18-68.3
				c0-20.4,1.5-109.2-4.7-132.6s-10.9-41.9-22.5-41.5c-11.6,0.4-158.8-2.1-160,38.3C807.1,396.7,792.1,443,792.1,443z"/>
			<path class="st11" d="M842.4,457.5c9.5,11.4,31.6,36,66.2,3.2c34.5-32.8-45.9-37.6-52.7-33.6
				C848.6,431.2,828.2,440.3,842.4,457.5z"/>
			<path class="st11" d="M945.2,420.6c12-14.3,36.3-8.2,37.4-19.2c1-10.2-2.3-73.7-20.4-65.9c0,0-31.4,50.4-69.6,59.5
				c-33.8,8.1-47.6,31.7-47.6,31.7s36.2-21.7,68.3,4.3c13,10.6,9.7,57.5,6.1,59.2c-4.2,2-13.4,1.4-11.6,12.7
				c1.4,8.9,8.8,1.1,15.7-0.7s10.4,5.3,17.1,4.1c5.2-0.9,7.5-5.2,9.6-8.6c3.5-5.5,10,4,12,2.2c3.9-3.4-8-8.3-13.3-18
				c-3.9-7.3,6.8-5.9,15.6,0.5c12.7,9.1,19.8,16.5,23.8,7.6c4-8.9,8.3-28.9-3-26.4s-35.7,10.9-41.8-1.4
				C935.3,445.5,936.7,430.7,945.2,420.6z"/>
			<path class="st12" d="M851.3,449.7c-10.5,11.7-10.3,19.8-3.6,22c6.5,2.1,28.2,12.1,48-0.3c19.8-12.3,7.2-23.9,3.8-27.7
				C893,436.6,863.7,436.1,851.3,449.7z"/>
			<path class="st11" d="M912,575.6c-4.9,9.9,15.7,22,29.2,16.3c13.5-5.7,29.1-23.2,30.6-34.9s-10.1-15.3-16.1-12.7
				C949.6,547,920.6,558.4,912,575.6z"/>
			<path class="st11" d="M959.3,510.8c-0.6-2.4,10.2-4.7,17.2,4.5c7,9.2-9.4,8.8-9.3,14.8s-15.8,3.4-22,4.5c-6.2,1-3.8-1.6,1.1-6.7
				S961.8,521.5,959.3,510.8z"/>
			<path class="st13" d="M987.4,432c-5.4-5.2-40.2-15.1-48.3,2.8c-1.7,3.8,0.7,23,5.8,28.1c3,3.1,7.1,8.7,36.2,1.4
				C1002.8,458.9,992.7,437.1,987.4,432z"/>
			<path class="st14" d="M950.1,450.9c0,0,10.6,9.6,20.3,6.1c9.8-3.5,15.5-8.4,16.5-14.3C988,436.8,948.7,444.9,950.1,450.9z"/>
			<path class="st15" d="M860.4,458.8c0,0,10.1,10.1,20,7.1s15.9-7.6,17.2-13.3C898.9,446.8,859.3,452.8,860.4,458.8z"/>
			<path class="st16" d="M869.9,428.8c0,0,36.5,3,6.1,10.2c0,0,39.4,5.1,19,32.5c0,0,22.5,4.2,25.8-7.9
				C923.9,451.5,927.9,410.1,869.9,428.8z"/>
			<path class="st11" d="M832.2,475c-3.2-19.5,35.3,15.1,61.5-2.5c15.4-10.4-1.7,25.3,13.8,57.4C914.8,545.7,825.5,556.1,832.2,475z
				"/>
			<path class="st12" d="M910.8,494.6c0,0-11.8,5.7-4.2,22.2c7.6,16.5,15.1,17.8,5.6,24.3c0,0,15.5-7.4,30-6.4
				c14.4,1,21.7-20.8,15.6-27.4s-6.7-0.2-8,1.7c-1.3,1.9-6,7.5-11.4,8c-5.4,0.5-1.7-8.5-11.6-8.4c-6.2,0.1-4.8,7.3-11.9,7.1
				C907.9,515.5,903.6,498.4,910.8,494.6z"/>
			<path class="st16" d="M926,516c0,0,10.9,2.1,8.3-2.8c-2.5-4.9-5.3-4.8-7.8-4.5c-2.6,0.2-4.4,2.3-5.7,4.1
				C919.7,514.6,923.9,515.7,926,516z"/>
			<path class="st16" d="M954.3,502.1c9.5,0.7,6.5,7.4,4,10.7c-2.5,3.4-10-0.3-10.2-1.6c-0.3-1.3,1.7-3.6,1.7-3.6
				C951.1,506.1,952.4,501.9,954.3,502.1z"/>
		</g>
		<path class="st17" d="M958.7,540.6c-5.1,1.7-4.9,3.3-12.4,5.4c-8.2,2.2-16.9,3-27.9,2.8c-7.7-0.1-5-0.9-14-4
			c3.7,0,3.3,1.5,5.6,0.2c5.6-3.5,12.5-9.3,18.6-7.5c7.6,2.2,8.7,2.2,12.3-0.4c1.7-1.2,9-0.9,14.4,0.8
			C958.2,538.7,958.6,540.2,958.7,540.6z"/>
		<path class="st18" d="M901.3,544.8c2.1-0.1,2.6-0.2,3.9,0.1c5,1.3,7.5,2.8,13.4,2.9c11.1,0.1,19.2-0.1,27.4-2.4
			c7.4-2.1,9.8-3.5,14.2-6.1c0.1,0.6,0,3.3-1.5,5.7c-1.7,2.7-10.4,11.4-23.2,12.9c-8.3,1-17.4-3.1-21-5c-1.2-0.6-2.6-2.4-5.1-3.7
			c-1.5-0.8-4-2.1-5.5-2.5C901.7,546.1,901.3,544.8,901.3,544.8z"/>
		<path class="st19" d="M932.5,547c-0.9,0.1-9.1-1.3-12.8-0.3c-6.4,1.8-2.7,10.1,18.6,9.3c15-0.6,25.1-12.6,7.8-12.6
			C940.2,543.5,941.3,545.5,932.5,547z"/>
		<path class="st20" d="M919.5,543.2c0-1.6,4.6-3.7,8.5-3.9c2.6-0.2,2.7,0.5,5.4,0.3c4-0.4,5.2-2.2,8.2-2.1c1.5,0.1,4.3,0.5,4.7,1.8
			c0.5,1.9-4.4,4.9-4.6,5C932.9,549.3,919.7,545.7,919.5,543.2z"/>
		<path class="st21" d="M900.7,452.7c0,0-8.8,8.3-25.4,7.7s-18-1.1-18.1-4C856.9,450.4,875.3,434,900.7,452.7z"/>
		<path class="st21" d="M981,446.2c1.9-1.4,1.1-5.4-0.2-6.7c-1.3-1.3-22.4-8.9-34.3,9.6C946.5,449.1,966.3,456.7,981,446.2z"/>
		<path class="st6" d="M997.7,398.8c-1.5,4.1-1.5,21.9-1.3,34c-1-21.8-5-46.8-7.2-62c-2.8-18-13.8-40.4-18.2-35.8
			c-24.1,25.6-53.8,29.1-76.5,32.6c-14.2,2.1-45.8,0.1-45.8,0.1s-0.6-0.1-1.7-0.2c-1.9,4.7-5.6,9.7-11.4,10.1
			c-11.3,1-13.8-11-13.8-11s2.9,6.3,10,7.3c5.4,0.8,7.2-3.2,7.7-7.2c-5.4-0.7-12-1.5-15.7-2c-19-2.8-1.8,40.1-1.8,40.1
			s-11.3,2.8-13.9,23c-2.7,20.2,12,79.5,12,79.5l-7,4.2l-3.1-10.6c-3.8-23.7-9.6-33.3-16.7-45.2c-7.1-12-11.3-11.2-14.9-14.2
			c-3.5-2.9-2.4-7.2-10.7-29.9s0-52.2,1-57.1s-2.3-4.6-4.5-6.9c-2.1-2.4-1.5-16.2,1.6-19c3.1-2.8,4.7-5.4,8.4-15.9
			c3.7-10.5,17.9-22.8,18.7-22.8c0.9,0-4.3-0.2-4.7-2.1c-0.4-1.8,12.8-13.6,25-20.3c12.2-6.7,17.4-0.9,17-2.4s1.6-5.9,18-10.7
			c24.2-7.1,54.2,3.8,52.9,1.2s-11.8-5.4-11.8-5.4c13.8-0.8,20.9,5.8,29.5,6.2c8.6,0.3,9.4,8.6,15.3,10.3c5.9,1.6,5.2-0.2,11.7,2.7
			c6.4,2.9,11.1,3.3,11.1,3.3c-4-9.6-9.3-11.1-9.3-11.1c39.9,7.3,43.1,32.6,42.7,46.3c-0.4,13.7-1.7,35.4,1.7,41.8
			S1000,392.7,997.7,398.8z"/>
		<path class="st7" d="M879.7,587.7c0,0,39.4,14.4,50,13.3c10.6-1.1,20.4-3,37.4-18.1l-2.2,5.3l-0.4-0.7l-3,5.3l-0.4-1.2l-3,4.4
			l-0.2-1.7l-9.2,9.1l-1.5-0.6l-5.3,3l-0.2-1.1l-1.3,1.6l-1.5-0.9l-1,1.9l-1.1-1.4l-2.6,1.5l-1.6-1l-1.6,1.1l-3.6-1.2l-4.8,3.9
			l-2.3-3.1l-5.8-2.6C914.8,604.3,899.8,599.4,879.7,587.7z"/>
		<path class="st22" d="M923.7,557.2l1.9,10.9l1.8-0.1l1.9,2.1l1.2,0l3.5,3.8l2.1-1.7l1.3,1.5l2.4-2.3l2.8-0.3l-0.1-4.3l1.6,1.2
			l-0.1-3.7l3.8-4l1.3-5.9c0,0-4.3,2.6-10.1,3.6C932.5,559.2,924.3,558.6,923.7,557.2z"/>
		<path class="st10" d="M839,439.1c0,0,5-16.6,14.4-20.8c4.7-2.1,25.3-2.3,42.3,0.6c9.7,1.7,17.8,7.6,17.8,7.6l-2.3-4.7
			c0,0,7.3,5.6,7.3,8.3c0.3,10.1-18.7,1.9-36.9,0.4C863.5,429.1,841.6,429.9,839,439.1z"/>
		<path class="st10" d="M995.7,422.4c0,0-1.3-13-14.1-13.7c-4.4-0.2-31.5,11.1-36.7,14.7c-0.8,0.6-0.9-2.5-0.9-2.5l-1,4.2
			c0,0-0.5-4-0.3-4.6c0,0-2,6.8-0.5,10.4C946.3,441.1,987.2,408.8,995.7,422.4z"/>
		<path class="st23" d="M869.6,445.3c-1.6,0.5-2.7,5-2.8,6.7c-0.5,4,1.9,9,8.6,8.6c10.2-0.4,10.6-7.3,8.8-11
			C882.4,446.1,879,442.2,869.6,445.3z"/>
		<path class="st23" d="M956.1,439.8c-1.3,0.7-3.8,2.6-3.8,4.3c0,4.3,2.6,9.1,8.4,8.3c8.9-1.3,8.5-8.4,6.6-12.2
			C965.4,436.7,964.1,435.7,956.1,439.8z"/>
		
			<ellipse transform="matrix(0.9995 -3.101484e-02 3.101484e-02 0.9995 -13.5949 27.5312)" class="st24" cx="880.7" cy="452" rx="2.1" ry="5.4"/>
		
			<ellipse transform="matrix(0.9995 -3.058151e-02 3.058151e-02 0.9995 -13.3598 26.8758)" class="st24" cx="871.9" cy="450.2" rx="2.8" ry="2.8"/>
		
			<ellipse transform="matrix(0.9995 -3.058151e-02 3.058151e-02 0.9995 -13.1097 29.4507)" class="st24" cx="956.2" cy="443.3" rx="2.1" ry="2.1"/>
		
			<ellipse transform="matrix(0.9995 -3.101497e-02 3.101497e-02 0.9995 -13.343 30.0973)" class="st24" cx="963.5" cy="445.2" rx="2.1" ry="4.1"/>
		<g>
			<path class="st10" d="M897.7,545.5c2.5-1.1,5.3-1.1,8-0.6c0.6,0.2,1.4,0.4,2,0.7c0.6,0.2,1.2,0.4,1.9,0.7
				c1.2,0.3,2.6,0.5,3.9,0.6c2.7,0.2,5.2-0.3,7.9-1c1.3-0.3,2.7-0.7,4-0.9c1.5-0.2,2.8-0.1,4.2,0.2c1.3,0.2,2.7,0.6,3.9,0.9
				c1.2,0.2,2.6,0.2,3.8-0.2c1.2-0.4,2.4-1.2,3.7-1.6c1.3-0.5,2.8-0.7,4.1-0.6c2.7-0.1,5.4-0.5,7.9-1.2c1.3-0.3,2.5-0.7,3.9-1.2
				c1.2-0.5,2.4-1.2,3.5-2.1c-0.8,1-2,1.8-3.2,2.4s-2.5,1.1-3.7,1.6c-2.7,0.8-5.3,1.4-8,1.6c-1.3,0-2.6,0.3-3.9,0.7
				c-1.2,0.4-2.4,1.2-3.7,1.6c-1.3,0.5-2.9,0.7-4.3,0.4c-1.3-0.2-2.7-0.6-4.1-0.9c-1.3-0.2-2.6-0.4-3.9-0.2
				c-1.2,0.2-2.6,0.4-3.9,0.7c-2.7,0.6-5.5,1-8.2,0.9c-1.3-0.1-2.7-0.4-4.1-0.9c-0.6-0.2-1.2-0.4-2-0.8c-0.6-0.2-1.2-0.4-1.9-0.7
				C903.2,544.8,900.4,544.7,897.7,545.5z"/>
			<g>
				<path class="st10" d="M930.6,534.9c-0.5-1-0.8-1.9-1.1-2.8c-0.3-1-0.4-1.8-0.6-2.8c-0.2-1-0.3-1.8-0.3-2.8c0-1-0.1-2,0-2.9
					c0.9,0.7,1.4,1.5,1.8,2.5s0.7,1.9,0.8,2.9C931.7,530.8,931.7,532.9,930.6,534.9z"/>
			</g>
			<g>
				<path class="st10" d="M940.2,525.4c0.3,0.7,0.4,1.2,0.5,1.8c0,0.5,0.2,1.1,0,1.6c0,0.5-0.1,1-0.2,1.3c-0.1,0.5-0.2,0.9-0.2,1.7
					c-0.7-0.1-1.4-0.7-1.6-1.3c-0.3-0.6-0.4-1.3-0.4-1.9c0-0.6,0.2-1.2,0.4-1.7C939.3,526.3,939.6,525.7,940.2,525.4z"/>
			</g>
			<g>
				<path class="st10" d="M947.9,494.4c1.5,0.8,2.7,1.9,3.9,3.1c1.1,1.3,1.9,2.9,2.2,4.7c0.1,0.8,0.1,1.8,0,2.7
					c-0.2,0.9-0.4,1.7-0.8,2.6c-0.7,1.6-1.6,3.1-2.8,4.4c-1.1,1.3-2.4,2.5-3.8,3.5c-0.7,0.5-1.4,1-2.2,1.4c-0.7,0.4-1.7,0.8-2.7,0.9
					c-1.9,0.2-3.7-0.6-5.2-1.5s-2.8-2.1-3.8-3.4l0,0l0,0c-0.6-1.2-1.7-2.3-3-2.8c-1.4-0.6-2.8-0.4-4.3,0.1c1.3-0.8,2.9-1.1,4.5-0.7
					c1.6,0.3,2.9,1.5,3.8,2.8l0-0.1c1.1,1.1,2.4,2.1,3.8,2.9s2.8,1.3,4.2,1.1c1.3-0.2,2.7-1.2,4-2.1c1.2-1,2.4-2,3.4-3.3
					c2-2.4,3.7-5.2,3.7-8.3c0-1.5-0.6-3-1.5-4.3C950.3,496.7,949.2,495.5,947.9,494.4z"/>
			</g>
			<g>
				<path class="st25" d="M942.9,432"/>
			</g>
			<g>
				<path class="st10" d="M941.6,427.5c-1.2,6-1.8,12-1.6,18.1c0.1,3,0.4,6,1,9c0.5,3,1.5,5.8,2.5,8.7c-1.7-2.6-3.1-5.4-3.9-8.4
					c-0.1-0.4-0.3-0.7-0.3-1.1l-0.3-1.1c-0.1-0.7-0.3-1.6-0.4-2.3c-0.2-1.6-0.3-3-0.4-4.6c-0.1-3.2,0.1-6.2,0.7-9.3
					C939.4,433.3,940.3,430.3,941.6,427.5z"/>
			</g>
			<g>
				<path class="st10" d="M980.6,548.9c1-3.3,2-6.5,3-9.9l3.1-9.9c2-6.5,4.1-13.1,5.6-19.7c0.8-3.3,1.4-6.6,1.8-10.1
					c0.4-3.4,0.4-6.8,0.5-10.3c0-3.4,0-6.8,0-10.3s-0.2-6.8-0.4-10.2c0.9,6.8,1.3,13.6,1.4,20.6c0,3.4,0,6.8-0.3,10.3
					c-0.3,3.4-0.9,6.9-1.6,10.2c-1.5,6.8-3.6,13.3-5.9,19.7C985.4,536,983,542.4,980.6,548.9z"/>
			</g>
			<g>
				<path class="st10" d="M913.2,429.4c2.2,1.5,3.8,3.7,5.2,5.8c1.4,2.3,2.2,4.8,2.9,7.4s1,5.2,1.2,7.8c0,1.3,0,2.6,0,3.9
					c-0.1,1.3-0.2,2.6-0.4,3.9c-0.2-1.3-0.2-2.6-0.2-3.9c-0.2-1.3-0.2-2.6-0.4-3.9c-0.3-1.2-0.3-2.6-0.6-3.8l-0.3-1.9l-0.4-1.8
					c-0.7-2.4-1.5-4.8-2.7-7.2c-0.5-1.1-1.2-2.3-1.9-3.4C915,431.3,914.1,430.2,913.2,429.4z"/>
			</g>
			<g>
				<path class="st10" d="M880.4,466.9c-2.9,1.2-6.3,1.1-9.4,0.3c-3.1-0.8-6.1-2.3-8.7-4c-0.6-0.5-1.3-0.9-1.9-1.4
					c-0.6-0.5-1.3-0.9-1.9-1.5c-0.6-0.6-1.1-0.9-1.8-1.7c-0.6-0.7-1-1.9-0.8-2.8c0.4-1.8,1.5-3.1,2.7-4.2c1.2-1.1,2.4-2,3.8-2.8
					c-1.1,1.1-2.1,2.3-3.1,3.4c-0.9,1.1-1.8,2.5-2,3.7c0,0.6,0.2,1.1,0.5,1.4c0.5,0.5,1.1,0.9,1.8,1.4l0.9,0.7l0.9,0.7
					c0.6,0.5,1.3,0.9,1.9,1.3c2.5,1.8,5.1,3.1,8.1,4.1C874.3,466.8,877.4,467.4,880.4,466.9z"/>
			</g>
			<g>
				<path class="st10" d="M886.3,445.4c1.3,0.2,2.7,0.6,3.9,1c1.4,0.4,2.6,0.9,3.8,1.5c1.2,0.6,2.5,1.1,3.7,1.8s2.4,1.5,3.5,2.5
					l0.6,0.6l-0.5,0.6c-0.7,0.9-1.4,1.5-2.1,2.1c-0.7,0.6-1.7,1.2-2.5,1.7c-1.8,0.9-3.7,1.5-5.7,1.5c1-0.4,1.8-0.7,2.7-1.2
					c0.8-0.4,1.7-0.9,2.4-1.4s1.4-1.1,2.1-1.8c0.7-0.6,1.3-1.4,1.8-2l0.2,1.2c-1-0.8-2.1-1.5-3.2-2.2c-1.1-0.7-2.2-1.4-3.5-2
					L886.3,445.4z"/>
			</g>
			<g>
				<path class="st10" d="M982.2,445.2c-0.1-2.1-0.9-4.1-2.2-5.2c-0.7-0.5-1.6-0.8-2.6-1c-1.1-0.2-2.1-0.4-3.1-0.6
					c-2-0.5-3.9-1-6-1.2c-2-0.2-4,0-6.1,0.4c1.8-1.2,4-1.7,6.2-1.9c2.2-0.1,4.4,0.4,6.4,0.8l3.1,0.8c1.1,0.3,2.2,0.8,3.1,1.6
					c0.9,0.8,1.4,1.9,1.6,3C982.6,443,982.5,444.1,982.2,445.2z"/>
			</g>
			<g>
				<path class="st10" d="M947.9,447.1c-0.3,0.7-0.7,1.5-1,2.1l-0.1-0.5c2,0.4,4.1,0.9,6,1.3c2,0.4,4.1,0.7,6,1s3.9,0.2,6,0.2
					c2.1-0.1,4-0.2,6.1-0.4c-1.9,0.9-4,1.5-6.1,1.8s-4.3,0.5-6.3,0.2c-2.1-0.2-4.2-0.7-6.1-1.3s-3.9-1.2-5.8-2.3l-0.4-0.2l0.2-0.3
					C946.8,448.4,947.3,447.7,947.9,447.1z"/>
			</g>
			<g>
				<path class="st10" d="M983.2,450.5c-1.2,1.9-2.8,3.5-4.6,4.8c-1.8,1.3-3.8,2.3-6,2.9c-2.2,0.6-4.5,1-6.7,0.8
					c-1.1,0-2.2-0.3-3.3-0.5c-1.1-0.2-2.1-0.7-3.2-1c1.1,0,2.2,0.2,3.3,0.1c1.1,0,2.1,0.1,3.2-0.1c2.1-0.1,4.1-0.5,6.2-1
					c2.1-0.6,4-1.3,5.8-2.4C979.8,453.1,981.5,451.9,983.2,450.5z"/>
			</g>
		</g>
		<g>
			<path class="st10" d="M909.9,544.9c2.7-2.4,5.8-4.6,9.3-6.1c1.7-0.8,3.6-1.5,5.6-1.6c0.5,0,1,0,1.5,0c0.5,0.1,1.1,0.1,1.5,0.2
				c0.9,0.2,2.2,0.4,3.1,0.5c3.5,0.1,6.6-1.2,10.3-1.7c1.8-0.3,3.8-0.4,5.6-0.3c1,0.1,1.8,0.1,2.8,0.3c0.9,0.1,1.8,0.3,2.6,0.9
				c-0.4-0.2-0.9-0.2-1.4-0.3c-0.5-0.1-0.9-0.1-1.3-0.1c-0.9,0-1.8,0.1-2.7,0.2c-1.8,0.2-3.6,0.5-5.5,0.8c-2.3,1-6.5,2.2-11.1,1.8
				c-1-0.1-2-0.2-2.9-0.3c-0.5-0.1-0.9-0.1-1.3-0.2c-0.4-0.1-0.9,0-1.2-0.1c-1.7,0.1-3.4,0.6-5.1,1.1
				C916.4,541.3,913,543,909.9,544.9z"/>
		</g>
		<g>
			<path class="st10" d="M918,555.8c3.6,1.1,7.1,1.7,10.8,1.7c3.7,0,7.2-0.5,10.7-1.3c1.8-0.5,3.4-1,5.1-1.6
				c0.8-0.4,1.8-0.5,2.5-1.1c0.8-0.4,1.7-0.8,2.5-1.2c0.8-0.4,1.7-0.9,2.4-1.3l2.4-1.3c1.6-1,3.1-2,4.7-3.1c-1.3,1.4-2.6,2.6-4,3.8
				c-1.6,1.1-3,2.4-4.5,3.3c-3.2,2.1-6.7,3.6-10.5,4.6c-3.8,0.8-7.7,1.3-11.5,0.8C924.9,559,921.2,557.9,918,555.8z"/>
		</g>
		<g>
			<path class="st10" d="M919.3,492.3c-2.4,0.6-4.7,1.5-6.6,2.8c-2,1.3-3.7,3-4.4,5.3c-0.8,2.2-0.7,4.5-0.2,7
				c0.6,2.3,1.5,4.6,2.4,6.9c-1.4-2-2.7-4.2-3.4-6.6c-0.4-1.2-0.6-2.4-0.6-3.8s0.2-2.6,0.6-3.8c0.9-2.5,2.8-4.5,5.1-5.6
				C914.4,493,916.9,492.5,919.3,492.3z"/>
		</g>
		<g>
			<path class="st10" d="M920,514.8c0.7,0.3,1.4,0.7,2.1,1s1.4,0.6,2.1,0.8c0.7,0.2,1.4,0.4,2.1,0.5c0.7,0.1,1.5,0.2,2.3,0.4
				c-1.4,0.7-3.2,0.7-4.8,0.3c-0.7-0.2-1.5-0.6-2.2-1.2C921,516.1,920.4,515.6,920,514.8z"/>
		</g>
		<g>
			<path class="st10" d="M959.2,494.8c1.1,0.5,2.1,1.4,2.9,2.4c0.8,1.1,1.2,2.3,1.3,3.6c0.2,2.7-0.7,5.1-2,7.4
				c-1.3,2.2-2.8,4.2-4.7,5.9c-1,0.8-2,1.5-3.2,1.9s-2.7,0.2-3.6-0.7c1,0.8,2.3,0.8,3.4,0.3c1.1-0.4,2-1.3,2.9-2
				c1.7-1.8,3.1-3.8,4.2-5.9c1.2-2.1,1.9-4.5,2-6.8C962.4,498.6,961.2,496.4,959.2,494.8z"/>
		</g>
		<g>
			<path class="st10" d="M815.4,517.7c2,6,4.4,11.8,7,17.5c2.7,5.6,5.7,11.2,9.7,15.9c0.9,1.2,2,2.4,3,3.4c1.1,1.1,2.3,2.2,3.4,3.3
				c2.3,2.2,4.7,4.2,6.9,6.4c4.6,4.1,9.5,8.2,14.5,12c-5.6-3-10.8-6.6-15.8-10.6c-2.5-2-4.9-4-7.3-6.1c-1.1-1.1-2.3-2.1-3.5-3.3
				c-1.1-1.2-2.3-2.4-3.3-3.7c-2-2.5-3.7-5.3-5.4-8c-1.6-2.9-3-5.6-4.1-8.7C818.4,530.1,816.5,523.9,815.4,517.7z"/>
		</g>
		<g>
			<path class="st10" d="M778.6,441.4c-1.6-1-3.5-1.8-5.3-1.8s-3.4,1.3-4.3,2.9l-0.3,0.6l-0.2,0.6c-0.2,0.4-0.3,0.9-0.6,1.2
				c-0.2,0.9-0.6,1.7-0.8,2.7c-0.1,1-0.4,1.8-0.5,2.8l-0.4,2.8c-0.9,7.6-0.7,15.3,0.5,22.8c0.6,3.8,1.6,7.4,2.9,11
				c0.7,1.8,1.3,3.5,2.2,5.2l2.6,5.2c3.4,6.8,6.8,13.9,12.3,19.4c-3.1-2.3-5.7-5.3-8-8.5c-2.3-3.2-4.2-6.6-6-9.9
				c-0.9-1.7-1.8-3.4-2.8-5.2c-0.9-1.8-1.8-3.6-2.5-5.4c-1.5-3.7-2.4-7.5-3-11.4c-1.2-7.8-1.2-15.7,0-23.4c0.3-2,0.6-3.8,1.2-5.8
				c0.2-1,0.7-1.9,1-2.8c0.2-0.5,0.5-0.9,0.7-1.4l0.3-0.6l0.5-0.6c0.4-0.4,0.6-0.9,1.1-1.1c0.4-0.4,0.7-0.8,1.2-0.9l0.7-0.4
				c0.2-0.1,0.5-0.1,0.7-0.3c0.5-0.1,1-0.2,1.6-0.2C775.4,438.9,777.1,440,778.6,441.4z"/>
		</g>
	</g>
</g>
<g id="Layer_5">
</g>
</svg>
