<?xml version="1.0" encoding="utf-8"?>
<svg version="1.1" id="Layer_1" xmlns="http://www.w3.org/2000/svg" xmlns:xlink="http://www.w3.org/1999/xlink" x="0px" y="0px"
	viewBox="0 0 200 85">
<style type="text/css">
	.strokeDesigner{fill:none;stroke:url(#repeatColorSeries);stroke-width:2;stroke-linecap:round;stroke-linejoin:round;stroke-miterlimit:10;}
</style>
	<defs>
		<linearGradient id="colorSeries" gradientUnits="userSpaceOnUse" x1="0%" y1="100%" x2="200%" y2="100%">
			<stop  offset="0" style="stop-color:#03a9f4"/>
			<stop  offset="0.33" style="stop-color:#f441a5"/>
			<stop  offset="0.66" style="stop-color:#ffeb3b"/>
			<stop  offset="1" style="stop-color:#03a9f4"/>
			<animate attributeType="XML" attributeName="x1"
				dur="5s" fill="freeze" repeatCount="indefinite"
				to="200%"/>
			<animate attributeType="XML" attributeName="x2"
				dur="5s" fill="freeze" repeatCount="indefinite"
				to="400%"/>
		</linearGradient>
		<linearGradient id="repeatColorSeries" xlink:href="#colorSeries" spreadMethod="repeat" />
		<filter id="blur" width="1500%" x="-375%" height="1500%" y="-375%">
			<feGaussianBlur in="SourceGraphic" stdDeviation="8" />
		</filter>
	</defs>
	<g id="desingerB" transform="translate(-80,-10)">
		<path id="desingerStroke" class="strokeDesigner"
			stroke-dasharray="740" stroke-dashoffset="740"
			d="M89,54 c0,0,7,1,13-8s7-21,5-21s-5,25-3,37c0,0-7-36,16-33s-1,55-12,30c0,0,9,16,28-9c0,0-1,3,1,6s7-8,3-11
			s-7,20,3,18s18-17,17-23s-12,5,2,13s0,13-5,12s-7.8-8.1,14-13c9-2,8.5-7.5,8.5-7.5S175.2,81.6,187,58c5-10,9.5-15.5,14-11
			c2,2,0,4,0,4s1-5-3-6s-9,7-7,14s10,7,11-5c0,0-1,30-9,24s15-17,17-24s2-6,2-6l2,15c0,0,0-18,4-17s1,17,8,18s7-16,7-16s-2,6,1,10
			s5-14,1-13s-3,23,6,19s8-18,8-18s3,12,2,15c0,0,2-21,5-19s0,7,8,8">
				<animate attributeType="XML" attributeName="stroke-dashoffset"
					begin="none" id="designDrawing" dur="2s" fill="freeze" repeatCount="1"
					to="0"/>
			</path>
		
		<path id="iDot" class="strokeDesigner"
			stroke-dasharray="20" stroke-dashoffset="20"
			d="M179,38c0,0-3-4,0-6S185,38,179,38">
				<animate attributeType="XML" attributeName="stroke-dashoffset"
					begin="designDrawing.end" dur=".2s" fill="freeze" repeatCount="1"
					to="0"/>
			</path>
		
		<use href="#desingerStroke" filter="url(#blur)"/>
		<use href="#iDot" filter="url(#blur)"/>
		<use href="#desingerStroke" filter="url(#blur)"/>
		<use href="#iDot" filter="url(#blur)"/>
	</g>
	
</svg>