<?xml version="1.0" encoding="utf-8"?>
<!-- Generator: Adobe Illustrator 22.1.0, SVG Export Plug-In . SVG Version: 6.00 Build 0)  -->
<svg version="1.1" id="Layer_1" xmlns="http://www.w3.org/2000/svg" xmlns:xlink="http://www.w3.org/1999/xlink" x="0px" y="0px"
	 viewBox="0 0 400 400" style="enable-background:new 0 0 400 400;" xml:space="preserve">
<style type="text/css">
	.st0{fill:none;}
	.st1{fill:#9B9B9B;}
	.st3{font-size:7px;}
	.st4{display:none;}
	.st5{display:inline;fill:#FFFFFF;}
	.st6{fill:#FFFFFF;}
</style>
<path class="st0" d="M284,208c-0.5,16.7-12,44.3-16.5,55.5c-3.9,9.6-11.6,27.1-28.2,32.4c-5,25.2-5,25.2-5,25.2l-53.4-22.2
	l-53.1-30.7c0,0-0.1,2.5-0.1-15.9c0-7.5-1.8-16.5-4-24.5c-8.9-0.9-13.6-5.1-21-18.6c-8.5-15.5-9.2-37.5-4.5-46.5s20.5,0,20.5,0
	s13.5-37.6,15.5-70.7c2-33.1,122.5-27.3,132-27.3s12.9,15.3,17.4,34.6C288,118.5,284.5,191.3,284,208z"/>
<g id="Strokes">
	<g class="st4">
		<path class="st5" d="M204.6,250.2c1,0.5,2,0.9,3.1,1.1c1.1,0.2,2.1,0.3,3.2,0.1c2.1-0.2,4.2-1,6.3-1.5c2.2-0.5,4.4-0.9,6.7-0.9
			c2.2,0,4.4,0,6.5-0.1c2.2-0.1,4.3-0.2,6.5-0.5c2.1-0.3,4.3-0.7,6.3-1.4c0.5-0.2,0.9-0.4,1.5-0.6c0.6-0.2,1.1-0.3,1.7-0.4
			c1.1-0.1,2.3-0.1,3.4,0c2.2,0.2,4.4,0.6,6.5,1.1c-2.2-0.2-4.4-0.4-6.5-0.4c-1.1,0-2.2,0.1-3.2,0.3c-0.5,0.1-1,0.2-1.5,0.4
			c-0.4,0.2-1,0.5-1.5,0.7c-2.1,0.9-4.3,1.3-6.5,1.7c-2.2,0.3-4.4,0.5-6.6,0.6c-2.2,0.1-4.4,0.1-6.6,0c-2.1-0.1-4.3,0.2-6.4,0.6
			c-2.1,0.4-4.3,1-6.5,1.1C208.6,252.1,206.4,251.4,204.6,250.2z"/>
	</g>
	<g>
		<path class="st6" d="M136.5,223.3c1.5,5,3.3,9.8,5.3,14.5c2.1,4.7,4.4,9.3,7.5,13.3c0.7,1,1.6,2,2.4,2.9c0.9,0.9,1.8,1.9,2.7,2.8
			c1.8,1.9,3.7,3.6,5.5,5.4c3.7,3.5,7.6,7,11.6,10.2c-4.5-2.6-8.7-5.7-12.7-9.1c-2-1.7-3.9-3.4-5.8-5.2c-0.9-0.9-1.8-1.8-2.8-2.8
			c-0.9-1-1.8-2-2.6-3.1c-1.6-2.1-2.9-4.4-4.2-6.7c-1.2-2.4-2.3-4.7-3.1-7.2C138.6,233.5,137.2,228.4,136.5,223.3z"/>
	</g>
	<g>
		<path class="st6" d="M108.3,159.8c-1.3-0.9-2.8-1.6-4.3-1.6s-2.8,1-3.6,2.3l-0.3,0.5l-0.2,0.5c-0.2,0.3-0.3,0.7-0.5,1
			c-0.2,0.7-0.5,1.4-0.7,2.2c-0.1,0.8-0.4,1.5-0.5,2.3l-0.4,2.3c-0.9,6.2-1,12.5-0.2,18.7c0.4,3.1,1.1,6.1,2.1,9.1
			c0.5,1.5,1,2.9,1.7,4.3l2,4.3c2.6,5.7,5.2,11.6,9.6,16.2c-2.5-2-4.5-4.5-6.3-7.2s-3.3-5.5-4.7-8.3c-0.7-1.4-1.4-2.8-2.2-4.3
			c-0.7-1.5-1.4-3-1.9-4.5c-1.1-3.1-1.8-6.2-2.2-9.4c-0.8-6.4-0.6-12.9,0.6-19.2c0.3-1.6,0.6-3.1,1.1-4.7c0.2-0.8,0.6-1.5,0.9-2.3
			c0.2-0.4,0.4-0.7,0.6-1.1l0.3-0.5l0.4-0.5c0.3-0.3,0.5-0.7,0.9-0.9c0.3-0.3,0.6-0.6,1-0.7l0.6-0.3c0.2-0.1,0.4-0.1,0.6-0.2
			c0.4-0.1,0.8-0.1,1.3-0.1C105.7,157.7,107.1,158.6,108.3,159.8z"/>
	</g>
	<g>
		<path class="st6" d="M128,267.5c-0.4-1.9-0.6-3.8-0.8-5.6c-0.2-1.9-0.3-3.7-0.3-5.6s0-3.7,0.1-5.6c0.1-1.9,0.2-3.7,0.4-5.6
			c0.7,1.8,1,3.7,1.2,5.6c0.2,1.9,0.3,3.8,0.4,5.6c0,1.9,0,3.8-0.1,5.6C128.6,263.7,128.4,265.6,128,267.5z"/>
	</g>
	<g>
		<path class="st6" d="M116,250.2c-0.6,0.8-0.7,1.8-0.6,2.7l0.1,0.7c0,0.2,0.1,0.5,0.2,0.7l0.2,0.7c0.1,0.2,0.2,0.4,0.3,0.6
			c0.4,0.9,0.9,1.6,1.5,2.4c0.6,0.8,1.2,1.5,1.8,2.2c2.6,2.8,5.6,5.1,8.7,7.4c3.1,2.2,6.4,4.2,9.7,6.2l5,2.8l5.1,2.7
			c13.5,7.2,26.9,14.7,40.6,21.5c6.8,3.4,13.8,6.7,20.8,9.7c3.5,1.5,7.1,2.9,10.7,4.2c3.6,1.2,7.3,2.4,10.9,3.8
			c3.6,1.5,7.1,3.2,10.2,5.7c0.8,0.6,1.5,1.3,2.3,1.9c0.7,0.7,1.4,1.4,2,2.2c0.6,0.8,1.2,1.6,1.8,2.4c0.5,0.8,1,1.7,1.5,2.6
			c1.8,3.5,2.8,7.3,3.4,11.2c0.7,3.8,0.7,7.7,0.7,11.6v0.5h-0.5c-2.9,0.3-5.7-0.1-8.4-0.6s-5.4-1.2-8.1-2c-2.7-0.8-5.3-1.7-7.8-2.7
			l-3.8-1.6l-3.8-1.7l3.8,1.5l3.9,1.4c2.6,0.9,5.2,1.8,7.9,2.4c2.7,0.7,5.3,1.3,8.1,1.7c1.4,0.2,2.7,0.3,4.1,0.4
			c1.3,0.1,2.8,0.1,4-0.1l-0.5,0.5c-0.1-3.8-0.2-7.6-1-11.3c-0.7-3.7-1.7-7.4-3.5-10.7c-1.8-3.3-4.3-6.1-7.2-8.4
			c-3-2.3-6.4-3.9-9.9-5.4c-3.5-1.4-7.1-2.5-10.8-3.7c-3.7-1.3-7.3-2.6-10.8-4.1c-7.1-3-14-6.4-20.9-9.8c-13.7-7-27.1-14.4-40.4-22
			c-6.7-3.8-13.4-7.6-19.5-12.2c-3-2.4-6-4.8-8.6-7.7c-0.6-0.8-1.2-1.5-1.8-2.3c-0.5-0.8-1.1-1.6-1.4-2.5c-0.1-0.2-0.2-0.4-0.3-0.7
			l-0.2-0.7c-0.1-0.2-0.1-0.5-0.2-0.7l-0.1-0.7C115.2,252,115.4,250.9,116,250.2z"/>
	</g>
	<g>
		<path class="st6" d="M267.1,350.5c1.9,2.6,3.6,5.3,5.1,8.1c1.5,2.8,2.9,5.7,4.2,8.6c1.2,3,2.4,6,3.2,9c0.9,3.1,1.6,6.2,1.8,9.4
			c-1.1-3-2.2-6-3.3-8.9c-1.2-2.9-2.4-5.8-3.6-8.8C272.1,362.2,269.5,356.4,267.1,350.5z"/>
	</g>
	<g>
		<path class="st6" d="M134.7,300.9c-2-1.1-4-2.4-5.9-3.5c-2-1.2-3.9-2.4-5.9-3.6c-1.9-1.2-3.9-2.5-5.8-3.7
			c-1.9-1.3-3.8-2.5-5.7-3.9l1.2-0.1c-3,3.2-6.1,6.3-9.2,9.5c-3.1,3.1-6.2,6.3-9.3,9.3c-3.1,3.1-6.3,6.2-9.5,9.2
			c-1.6,1.5-3.2,3-4.8,4.5c-1.6,1.5-3.2,3-4.9,4.5c1.4-1.7,2.9-3.3,4.4-4.9s2.9-3.3,4.4-4.9c3-3.2,6-6.4,9-9.6s6.1-6.3,9.2-9.5
			c3.1-3.1,6.2-6.3,9.3-9.4l0.6-0.6l0.6,0.5c1.7,1.4,3.7,2.7,5.5,4.1l5.6,4c1.9,1.3,3.7,2.7,5.6,4.1
			C131,298.2,132.9,299.5,134.7,300.9z"/>
	</g>
	<g>
		<path class="st6" d="M243.1,156.3"/>
	</g>
	<g>
		<path class="st6" d="M271,253.1c0.9-2.7,1.8-5.3,2.7-8l2.8-8c1.8-5.3,3.7-10.6,5.1-16c0.7-2.7,1.3-5.4,1.7-8.2
			c0.4-2.8,0.5-5.6,0.7-8.4c0.1-2.8,0.2-5.6,0.3-8.4c0.1-2.8,0-5.6-0.1-8.4c0.6,5.6,0.7,11.2,0.6,16.9c-0.1,2.8-0.2,5.6-0.5,8.4
			c-0.3,2.8-0.9,5.6-1.6,8.3c-1.4,5.5-3.3,10.8-5.3,16C275.2,242.6,273.1,247.8,271,253.1z"/>
	</g>
	<path class="st6" d="M288.8,130.5c-1.3,3.3-1.8,17.9-1.9,27.8c-0.3-17.9-2.9-38.5-4.3-51c-1.8-14.8-10.3-33.5-14-29.8
		c-20.4,20.4-44.8,22.5-63.5,24.8c-11.7,1.4-37.5-1.1-37.5-1.1s-0.5-0.1-1.4-0.2c-1.7,3.8-4.8,7.8-9.6,8c-9.3,0.5-11-9.4-11-9.4
		s2.2,5.2,8,6.2c4.4,0.8,6-2.4,6.5-5.7c-4.4-0.7-9.8-1.5-12.8-2c-15.5-2.8-2.5,32.8-2.5,32.8s-9.3,2-12,18.5s7.8,65.5,7.8,65.5
		l-5.8,3.3l-2.3-8.8c-2.5-19.5-7-27.5-12.5-37.5s-9-9.5-11.8-12s-1.8-6-8-24.8s1.3-42.8,2.3-46.8s-1.8-3.8-3.5-5.8
		s-0.8-13.3,1.8-15.5s4-4.3,7.3-12.8S123.3,36,124,36s-3.5-0.3-3.8-1.8s10.8-10.8,21-16s14.3-0.3,14-1.5s1.5-4.8,15-8.3
		c20-5.2,44.3,4.5,43.3,2.3S204,6,204,6c11.3-0.3,17,5.3,24,5.8s7.5,7.3,12.3,8.8s4.3,0,9.5,2.5s9,3,9,3c-3-8-7.3-9.3-7.3-9.3
		c32.5,7,34.5,27.8,33.8,39s-2.3,29,0.3,34.3S290.8,125.5,288.8,130.5z"/>
	<path class="st0" d="M187.4,282.3c0,0,31.9,12.8,40.6,12.2s16.8-1.9,31.1-13.9l-1.9,4.3l-0.3-0.6l-2.6,4.3l-0.3-1l-2.6,3.5
		l-0.1-1.4l-7.8,7.2l-1.2-0.5l-4.4,2.3l-0.1-0.9l-1.1,1.3l-1.2-0.8l-0.9,1.5l-0.9-1.2l-2.2,1.2l-1.3-0.9l-1.3,0.9l-2.9-1.1l-4,3.1
		l-1.8-2.6l-4.7-2.3C215.7,296.8,203.5,292.4,187.4,282.3z"/>
	<path class="st6" d="M224.2,258.4l1.3,9h1.5l1.5,1.8h1l2.8,3.2l1.8-1.3l1,1.3l2-1.8l2.3-0.2v-3.5l1.3,1v-3l3.2-3.2l1.2-4.8
		c0,0-3.6,2-8.4,2.7C231.3,260.3,224.6,259.6,224.2,258.4z"/>
</g>
</svg>
