<?xml version="1.0" encoding="utf-8"?>
<!-- Generator: Adobe Illustrator 22.1.0, SVG Export Plug-In . SVG Version: 6.00 Build 0)  -->
<svg version="1.1" id="Layer_1" xmlns="http://www.w3.org/2000/svg" xmlns:xlink="http://www.w3.org/1999/xlink" x="0px" y="0px"
	 viewBox="0 0 400 400" style="enable-background:new 0 0 400 400;" xml:space="preserve">
<style type="text/css">
	.st0{fill:#FFFFFF;}
	.st1{display:none;}
	.st2{display:inline;fill:#FFFFFF;}
	.st3{fill:none;stroke:#FFFFFF;stroke-miterlimit:10;}
</style>
<path class="st0" d="M288.8,130.5c-1.3,3.3-1.8,17.9-1.9,27.8c-0.3-17.9-2.9-38.5-4.3-51c-1.8-14.8-10.3-33.5-14-29.8
	c-20.4,20.4-44.8,22.5-63.5,24.8c-11.7,1.4-37.5-1.1-37.5-1.1s-0.5-0.1-1.4-0.2c-1.7,3.8-4.8,7.8-9.6,8c-9.3,0.5-11-9.4-11-9.4
	s2.2,5.2,8,6.2c4.4,0.8,6-2.4,6.5-5.7c-4.4-0.7-9.8-1.5-12.8-2c-15.5-2.8-2.5,32.8-2.5,32.8s-9.3,2-12,18.5s7.8,65.5,7.8,65.5
	l-5.8,3.3l-2.3-8.8c-2.5-19.5-7-27.5-12.5-37.5s-9-9.5-11.8-12s-1.8-6-8-24.8s1.3-42.8,2.3-46.8s-1.8-3.8-3.5-5.8
	s-0.8-13.3,1.8-15.5s4-4.3,7.3-12.8S123.3,36,124,36s-3.5-0.3-3.8-1.8s10.8-10.8,21-16s14.3-0.3,14-1.5s1.5-4.8,15-8.3
	c20-5.2,44.3,4.5,43.3,2.3S204,6,204,6c11.3-0.3,17,5.3,24,5.8s7.5,7.3,12.3,8.8s4.3,0,9.5,2.5s9,3,9,3c-3-8-7.3-9.3-7.3-9.3
	c32.5,7,34.5,27.8,33.8,39s-2.3,29,0.3,34.3S290.8,125.5,288.8,130.5z"/>
<path class="st0" d="M187.4,282.3c0,0,31.9,12.8,40.6,12.2s16.8-1.9,31.1-13.9l-1.9,4.3l-0.3-0.6l-2.6,4.3l-0.3-1l-2.6,3.5l-0.1-1.4
	l-7.8,7.2l-1.2-0.5l-4.4,2.3l-0.1-0.9l-1.1,1.3l-1.2-0.8l-0.9,1.5l-0.9-1.2l-2.2,1.2l-1.3-0.9l-1.3,0.9l-2.9-1.1l-4,3.1l-1.8-2.6
	l-4.7-2.3C215.7,296.8,203.5,292.4,187.4,282.3z"/>
<path class="st0" d="M224.2,258.4l1.3,9h1.5l1.5,1.8h1l2.8,3.2l1.8-1.3l1,1.3l2-1.8l2.3-0.2v-3.5l1.3,1v-3l3.2-3.2l1.2-4.8
	c0,0-3.6,2-8.4,2.7C231.3,260.3,224.6,259.6,224.2,258.4z"/>
<path class="st0" d="M157.8,159.5c0,0,4.5-13.5,12.3-16.7c3.9-1.6,20.8-1.2,34.6,1.6c7.9,1.6,14.4,6.7,14.4,6.7l-1.8-3.9
	c0,0,5.8,4.8,5.8,7c0,8.3-15.4,1.1-30.2-0.6S160.2,152,157.8,159.5z"/>
<path class="st0" d="M286.5,149.8c0,0-0.7-10.7-11.2-11.6c-3.6-0.3-26.1,8.3-30.4,11.1c-0.7,0.5-0.7-2.1-0.7-2.1l-0.9,3.4
	c0,0-0.3-3.3-0.1-3.8c0,0-1.8,5.5-0.7,8.5C245.6,163.8,279.9,138.4,286.5,149.8z"/>
<g id="Strokes">
	<g class="st1">
		<path class="st2" d="M204.6,250.2c1,0.5,2,0.9,3.1,1.1c1.1,0.2,2.1,0.3,3.2,0.1c2.1-0.2,4.2-1,6.3-1.5c2.2-0.5,4.4-0.9,6.7-0.9
			c2.2,0,4.4,0,6.5-0.1c2.2-0.1,4.3-0.2,6.5-0.5c2.1-0.3,4.3-0.7,6.3-1.4c0.5-0.2,0.9-0.4,1.5-0.6c0.6-0.2,1.1-0.3,1.7-0.4
			c1.1-0.1,2.3-0.1,3.4,0c2.2,0.2,4.4,0.6,6.5,1.1c-2.2-0.2-4.4-0.4-6.5-0.4c-1.1,0-2.2,0.1-3.2,0.3c-0.5,0.1-1,0.2-1.5,0.4
			c-0.4,0.2-1,0.5-1.5,0.7c-2.1,0.9-4.3,1.3-6.5,1.7c-2.2,0.3-4.4,0.5-6.6,0.6c-2.2,0.1-4.4,0.1-6.6,0c-2.1-0.1-4.3,0.2-6.4,0.6
			c-2.1,0.4-4.3,1-6.5,1.1C208.6,252.1,206.4,251.4,204.6,250.2z"/>
	</g>
	<g>
		<path class="st0" d="M213.2,248c2.3-1.9,4.9-3.6,7.8-4.8c1.4-0.6,3-1.1,4.6-1.2c0.4,0,0.8,0,1.2,0c0.4,0.1,0.9,0.1,1.2,0.2
			c0.7,0.2,1.8,0.4,2.5,0.5c2.9,0.2,5.4-0.8,8.5-1.1c1.5-0.2,3.1-0.2,4.6-0.1c0.8,0.1,1.5,0.1,2.3,0.3c0.7,0.1,1.5,0.3,2.1,0.8
			c-0.3-0.2-0.7-0.2-1.1-0.3c-0.4-0.1-0.7-0.1-1.1-0.1c-0.7,0-1.5,0-2.2,0.1c-1.5,0.1-3,0.3-4.5,0.5c-1.9,0.8-5.4,1.6-9.1,1.2
			c-0.8-0.1-1.6-0.2-2.4-0.3c-0.4-0.1-0.7-0.1-1.1-0.2c-0.3-0.1-0.7,0-1-0.1c-1.4,0-2.8,0.4-4.2,0.8
			C218.6,245.2,215.8,246.5,213.2,248z"/>
	</g>
	<g>
		<path class="st0" d="M220,257.6c3,1,6.1,1.5,9.2,1.5c3.1,0,6.1-0.4,9.1-1.2c1.5-0.5,2.9-0.9,4.3-1.5c0.7-0.3,1.5-0.5,2.1-0.9
			c0.7-0.4,1.4-0.7,2.1-1.1c0.7-0.3,1.4-0.8,2-1.2l2-1.2c1.3-0.9,2.6-1.8,3.9-2.7c-1.1,1.2-2.2,2.3-3.4,3.4c-1.3,1-2.5,2.1-3.8,2.9
			c-2.7,1.8-5.7,3.2-8.8,4.1c-3.2,0.8-6.5,1.2-9.7,0.8C225.9,260.3,222.7,259.4,220,257.6z"/>
	</g>
	<g>
		<path class="st0" d="M222.2,205.1c-2,0.4-3.9,1.1-5.5,2.1c-1.7,1-3.1,2.4-3.7,4.2c-0.7,1.8-0.7,3.7-0.3,5.7
			c0.4,1.9,1.1,3.8,1.8,5.7c-1.1-1.7-2.1-3.5-2.6-5.5c-0.3-1-0.4-2-0.4-3.1s0.2-2.1,0.6-3.1c0.8-2,2.4-3.6,4.3-4.5
			C218.2,205.6,220.2,205.2,222.2,205.1z"/>
	</g>
	<g>
		<path class="st0" d="M222.2,223.6c0.6,0.3,1.1,0.6,1.7,0.9c0.6,0.3,1.1,0.5,1.7,0.7c0.6,0.2,1.1,0.4,1.7,0.5
			c0.6,0.1,1.2,0.2,1.9,0.4c-1.2,0.5-2.6,0.5-3.9,0.1c-0.6-0.2-1.2-0.5-1.8-1C223,224.7,222.5,224.2,222.2,223.6z"/>
	</g>
	<g>
		<path class="st0" d="M254.8,208.2c0.9,0.4,1.7,1.2,2.3,2c0.6,0.9,0.9,1.9,1,3c0.1,2.2-0.7,4.2-1.8,6c-1.1,1.8-2.4,3.4-4,4.7
			c-0.8,0.6-1.7,1.2-2.7,1.5s-2.2,0.1-2.9-0.7c0.8,0.7,1.9,0.7,2.8,0.3c0.9-0.3,1.7-1,2.4-1.6c1.4-1.4,2.6-3,3.6-4.7
			s1.7-3.6,1.8-5.5C257.3,211.4,256.4,209.5,254.8,208.2z"/>
	</g>
	<g>
		<path class="st0" d="M136.5,223.3c1.5,5,3.3,9.8,5.3,14.5c2.1,4.7,4.4,9.3,7.5,13.3c0.7,1,1.6,2,2.4,2.9c0.9,0.9,1.8,1.9,2.7,2.8
			c1.8,1.9,3.7,3.6,5.5,5.4c3.7,3.5,7.6,7,11.6,10.2c-4.5-2.6-8.7-5.7-12.7-9.1c-2-1.7-3.9-3.4-5.8-5.2c-0.9-0.9-1.8-1.8-2.8-2.8
			c-0.9-1-1.8-2-2.6-3.1c-1.6-2.1-2.9-4.4-4.2-6.7c-1.2-2.4-2.3-4.7-3.1-7.2C138.6,233.5,137.2,228.4,136.5,223.3z"/>
	</g>
	<g>
		<path class="st0" d="M108.3,159.8c-1.3-0.9-2.8-1.6-4.3-1.6s-2.8,1-3.6,2.3l-0.3,0.5l-0.2,0.5c-0.2,0.3-0.3,0.7-0.5,1
			c-0.2,0.7-0.5,1.4-0.7,2.2c-0.1,0.8-0.4,1.5-0.5,2.3l-0.4,2.3c-0.9,6.2-1,12.5-0.2,18.7c0.4,3.1,1.1,6.1,2.1,9.1
			c0.5,1.5,1,2.9,1.7,4.3l2,4.3c2.6,5.7,5.2,11.6,9.6,16.2c-2.5-2-4.5-4.5-6.3-7.2s-3.3-5.5-4.7-8.3c-0.7-1.4-1.4-2.8-2.2-4.3
			c-0.7-1.5-1.4-3-1.9-4.5c-1.1-3.1-1.8-6.2-2.2-9.4c-0.8-6.4-0.6-12.9,0.6-19.2c0.3-1.6,0.6-3.1,1.1-4.7c0.2-0.8,0.6-1.5,0.9-2.3
			c0.2-0.4,0.4-0.7,0.6-1.1l0.3-0.5l0.4-0.5c0.3-0.3,0.5-0.7,0.9-0.9c0.3-0.3,0.6-0.6,1-0.7l0.6-0.3c0.2-0.1,0.4-0.1,0.6-0.2
			c0.4-0.1,0.8-0.1,1.3-0.1C105.7,157.7,107.1,158.6,108.3,159.8z"/>
	</g>
	<g>
		<path class="st0" d="M128,267.5c-0.4-1.9-0.6-3.8-0.8-5.6c-0.2-1.9-0.3-3.7-0.3-5.6s0-3.7,0.1-5.6c0.1-1.9,0.2-3.7,0.4-5.6
			c0.7,1.8,1,3.7,1.2,5.6c0.2,1.9,0.3,3.8,0.4,5.6c0,1.9,0,3.8-0.1,5.6C128.6,263.7,128.4,265.6,128,267.5z"/>
	</g>
	<g>
		<path class="st0" d="M116,250.2c-0.6,0.8-0.7,1.8-0.6,2.7l0.1,0.7c0,0.2,0.1,0.5,0.2,0.7l0.2,0.7c0.1,0.2,0.2,0.4,0.3,0.6
			c0.4,0.9,0.9,1.6,1.5,2.4c0.6,0.8,1.2,1.5,1.8,2.2c2.6,2.8,5.6,5.1,8.7,7.4c3.1,2.2,6.4,4.2,9.7,6.2l5,2.8l5.1,2.7
			c13.5,7.2,26.9,14.7,40.6,21.5c6.8,3.4,13.8,6.7,20.8,9.7c3.5,1.5,7.1,2.9,10.7,4.2c3.6,1.2,7.3,2.4,10.9,3.8
			c3.6,1.5,7.1,3.2,10.2,5.7c0.8,0.6,1.5,1.3,2.3,1.9c0.7,0.7,1.4,1.4,2,2.2c0.6,0.8,1.2,1.6,1.8,2.4c0.5,0.8,1,1.7,1.5,2.6
			c1.8,3.5,2.8,7.3,3.4,11.2c0.7,3.8,0.7,7.7,0.7,11.6v0.5h-0.5c-2.9,0.3-5.7-0.1-8.4-0.6s-5.4-1.2-8.1-2c-2.7-0.8-5.3-1.7-7.8-2.7
			l-3.8-1.6l-3.8-1.7l3.8,1.5l3.9,1.4c2.6,0.9,5.2,1.8,7.9,2.4c2.7,0.7,5.3,1.3,8.1,1.7c1.4,0.2,2.7,0.3,4.1,0.4
			c1.3,0.1,2.8,0.1,4-0.1l-0.5,0.5c-0.1-3.8-0.2-7.6-1-11.3c-0.7-3.7-1.7-7.4-3.5-10.7c-1.8-3.3-4.3-6.1-7.2-8.4
			c-3-2.3-6.4-3.9-9.9-5.4c-3.5-1.4-7.1-2.5-10.8-3.7c-3.7-1.3-7.3-2.6-10.8-4.1c-7.1-3-14-6.4-20.9-9.8c-13.7-7-27.1-14.4-40.4-22
			c-6.7-3.8-13.4-7.6-19.5-12.2c-3-2.4-6-4.8-8.6-7.7c-0.6-0.8-1.2-1.5-1.8-2.3c-0.5-0.8-1.1-1.6-1.4-2.5c-0.1-0.2-0.2-0.4-0.3-0.7
			l-0.2-0.7c-0.1-0.2-0.1-0.5-0.2-0.7l-0.1-0.7C115.2,252,115.4,250.9,116,250.2z"/>
	</g>
	<g>
		<path class="st0" d="M267.1,350.5c1.9,2.6,3.6,5.3,5.1,8.1c1.5,2.8,2.9,5.7,4.2,8.6c1.2,3,2.4,6,3.2,9c0.9,3.1,1.6,6.2,1.8,9.4
			c-1.1-3-2.2-6-3.3-8.9c-1.2-2.9-2.4-5.8-3.6-8.8C272.1,362.2,269.5,356.4,267.1,350.5z"/>
	</g>
	<g>
		<path class="st0" d="M134.7,300.9c-2-1.1-4-2.4-5.9-3.5c-2-1.2-3.9-2.4-5.9-3.6c-1.9-1.2-3.9-2.5-5.8-3.7
			c-1.9-1.3-3.8-2.5-5.7-3.9l1.2-0.1c-3,3.2-6.1,6.3-9.2,9.5c-3.1,3.1-6.2,6.3-9.3,9.3c-3.1,3.1-6.3,6.2-9.5,9.2
			c-1.6,1.5-3.2,3-4.8,4.5c-1.6,1.5-3.2,3-4.9,4.5c1.4-1.7,2.9-3.3,4.4-4.9s2.9-3.3,4.4-4.9c3-3.2,6-6.4,9-9.6s6.1-6.3,9.2-9.5
			c3.1-3.1,6.2-6.3,9.3-9.4l0.6-0.6l0.6,0.5c1.7,1.4,3.7,2.7,5.5,4.1l5.6,4c1.9,1.3,3.7,2.7,5.6,4.1
			C131,298.2,132.9,299.5,134.7,300.9z"/>
	</g>
	<g>
		<path class="st0" d="M230.4,240.3c-0.4-0.8-0.6-1.6-0.8-2.3c-0.2-0.8-0.3-1.5-0.4-2.3c-0.1-0.8-0.2-1.5-0.2-2.3s0-1.6,0.1-2.4
			c0.7,0.6,1.1,1.3,1.4,2.1c0.3,0.8,0.5,1.6,0.6,2.4C231.4,237,231.3,238.7,230.4,240.3z"/>
	</g>
	<g>
		<path class="st0" d="M238.5,232.8c0.2,0.6,0.3,1,0.4,1.5c0,0.4,0.1,0.9,0,1.3c0,0.4-0.1,0.8-0.2,1.1c-0.1,0.4-0.2,0.7-0.2,1.4
			c-0.6-0.1-1.1-0.6-1.3-1.1s-0.3-1.1-0.3-1.6s0.2-1,0.4-1.4C237.7,233.5,238,233,238.5,232.8z"/>
	</g>
	<g>
		<path class="st0" d="M245.6,207.6c1.2,0.7,2.2,1.6,3.1,2.6c0.9,1.1,1.5,2.4,1.7,3.9c0.1,0.7,0,1.5-0.1,2.2
			c-0.2,0.7-0.4,1.4-0.7,2.1c-0.6,1.3-1.4,2.5-2.4,3.5c-0.9,1-2,2-3.2,2.8c-0.6,0.4-1.2,0.8-1.8,1.1s-1.4,0.6-2.2,0.7
			c-1.6,0.1-3-0.6-4.2-1.4c-1.2-0.8-2.2-1.8-3-2.9l0,0l0,0c-0.5-1-1.3-1.9-2.4-2.4c-1.1-0.5-2.3-0.4-3.5,0c1.1-0.6,2.4-0.8,3.7-0.5
			s2.3,1.3,3,2.4v-0.1c0.9,0.9,1.9,1.8,3,2.5s2.3,1.1,3.4,1c1.1-0.1,2.2-0.9,3.3-1.6c1-0.8,2-1.6,2.9-2.6c1.7-1.9,3.2-4.2,3.2-6.7
			c0-1.2-0.4-2.5-1.1-3.6C247.5,209.5,246.6,208.5,245.6,207.6z"/>
	</g>
	<g>
		<path class="st0" d="M243.1,156.3"/>
	</g>
	<g>
		<path class="st0" d="M242.1,152.6c-1.1,4.9-1.8,9.8-1.8,14.8c0,2.5,0.2,4.9,0.6,7.4c0.3,2.5,1.1,4.8,1.8,7.2c-1.3-2.2-2.4-4.5-3-7
			c-0.1-0.3-0.2-0.6-0.2-0.9l-0.2-0.9c-0.1-0.6-0.2-1.3-0.3-1.9c-0.1-1.3-0.2-2.5-0.2-3.8c0-2.6,0.2-5.1,0.8-7.6
			C240.2,157.3,241,154.8,242.1,152.6z"/>
	</g>
	<g>
		<path class="st0" d="M271,253.1c0.9-2.7,1.8-5.3,2.7-8l2.8-8c1.8-5.3,3.7-10.6,5.1-16c0.7-2.7,1.3-5.4,1.7-8.2
			c0.4-2.8,0.5-5.6,0.7-8.4c0.1-2.8,0.2-5.6,0.3-8.4c0.1-2.8,0-5.6-0.1-8.4c0.6,5.6,0.7,11.2,0.6,16.9c-0.1,2.8-0.2,5.6-0.5,8.4
			c-0.3,2.8-0.9,5.6-1.6,8.3c-1.4,5.5-3.3,10.8-5.3,16C275.2,242.6,273.1,247.8,271,253.1z"/>
	</g>
	<g>
		<path class="st0" d="M218.8,153.4c1.8,1.3,3,3.1,4.1,4.9c1.1,1.9,1.7,4,2.2,6.1s0.7,4.3,0.8,6.4c0,1.1-0.1,2.1-0.1,3.2
			c-0.1,1.1-0.2,2.1-0.4,3.2c-0.1-1.1-0.1-2.1-0.1-3.2c-0.1-1.1-0.1-2.1-0.2-3.2c-0.2-1-0.2-2.1-0.4-3.1l-0.2-1.6l-0.3-1.5
			c-0.5-2-1.1-4-2-6c-0.4-0.9-0.9-1.9-1.5-2.8C220.2,155,219.5,154.1,218.8,153.4z"/>
	</g>
	<g>
		<path class="st0" d="M191,183.3c-2.4,0.9-5.2,0.7-7.7,0s-4.9-2-7-3.5c-0.5-0.4-1-0.8-1.5-1.2s-1-0.8-1.5-1.3s-0.9-0.8-1.4-1.4
			c-0.5-0.6-0.8-1.6-0.6-2.3c0.4-1.5,1.3-2.5,2.3-3.4s2-1.6,3.2-2.2c-0.9,0.9-1.8,1.8-2.6,2.7s-1.5,2-1.7,3c0,0.5,0.1,0.9,0.4,1.2
			c0.4,0.4,0.9,0.8,1.4,1.2l0.7,0.6l0.7,0.6c0.5,0.4,1,0.8,1.5,1.1c2,1.5,4.1,2.7,6.5,3.6C186,183.1,188.5,183.6,191,183.3z"/>
	</g>
	<g>
		<path class="st0" d="M196.4,165.8c1.1,0.2,2.2,0.6,3.2,0.9c1.1,0.4,2.1,0.8,3.1,1.3s2,1,3,1.6s1.9,1.3,2.8,2.1l0.5,0.5l-0.4,0.5
			c-0.6,0.7-1.2,1.2-1.8,1.7s-1.4,0.9-2.1,1.3c-1.5,0.7-3.1,1.1-4.7,1.1c0.8-0.3,1.5-0.5,2.2-0.9c0.7-0.3,1.4-0.7,2-1.1
			c0.6-0.4,1.2-0.9,1.8-1.4s1.1-1.1,1.5-1.6l0.1,1c-0.8-0.7-1.7-1.3-2.6-1.9c-0.9-0.6-1.8-1.2-2.8-1.7L196.4,165.8z"/>
	</g>
	<g>
		<path class="st0" d="M274.9,168.1c0-1.7-0.6-3.4-1.7-4.3c-0.6-0.4-1.3-0.7-2.1-0.9c-0.9-0.2-1.7-0.4-2.5-0.6
			c-1.6-0.5-3.2-0.9-4.9-1.1c-1.6-0.2-3.3-0.1-5,0.2c1.5-0.9,3.3-1.3,5.1-1.4c1.8,0,3.6,0.4,5.2,0.8l2.5,0.7
			c0.9,0.3,1.8,0.7,2.5,1.4s1.1,1.6,1.2,2.5C275.3,166.3,275.2,167.2,274.9,168.1z"/>
	</g>
	<g>
		<path class="st0" d="M246.8,168.8c-0.3,0.6-0.6,1.2-0.9,1.7l-0.1-0.4c1.6,0.4,3.3,0.8,4.9,1.2c1.6,0.4,3.3,0.7,4.9,1
			s3.2,0.3,4.9,0.3s3.3-0.1,5-0.2c-1.6,0.7-3.3,1.1-5,1.3s-3.5,0.3-5.2,0c-1.7-0.2-3.4-0.7-5-1.2s-3.2-1.1-4.7-2l-0.3-0.2l0.2-0.2
			C245.8,169.8,246.3,169.3,246.8,168.8z"/>
	</g>
	<g>
		<path class="st0" d="M275.6,172.5c-1,1.5-2.4,2.8-3.9,3.8s-3.2,1.8-5,2.2s-3.7,0.7-5.5,0.5c-0.9,0-1.8-0.3-2.7-0.5
			c-0.9-0.2-1.7-0.6-2.6-0.9c0.9,0,1.8,0.2,2.7,0.2c0.9,0,1.7,0.1,2.6,0c1.7,0,3.4-0.3,5.1-0.7s3.3-1,4.8-1.8
			C272.7,174.5,274.2,173.6,275.6,172.5z"/>
	</g>
</g>
<path class="st3" d="M182.7,165.3c-1.3,0.4-2.3,4-2.5,5.4c-0.5,3.3,1.3,7.4,6.8,7.3c8.4-0.1,8.9-5.7,7.5-8.8
	C193.2,166.3,190.5,163,182.7,165.3z"/>
<path class="st3" d="M253.7,163c-1.1,0.5-3.2,2-3.2,3.4c-0.1,3.5,1.9,7.5,6.7,7c7.3-0.8,7.2-6.7,5.7-9.8
	C261.4,160.7,260.3,159.9,253.7,163z"/>
<ellipse class="st0" cx="191.6" cy="171.1" rx="1.7" ry="4.4"/>
<circle class="st0" cx="184.5" cy="169.4" r="2.3"/>
<circle class="st0" cx="253.7" cy="165.9" r="1.7"/>
<ellipse class="st0" cx="259.6" cy="167.6" rx="1.7" ry="3.4"/>
<path class="st0" d="M255,246.6c-4.1,1.6-8.3,2.8-12.6,3.7s-8.6,1.5-13,1.8c-4.4,0.2-8.8,0.1-13.1-0.6c-2.2-0.4-4.3-0.9-6.4-1.6
	c-2.1-0.7-4.1-1.6-6-2.7c4,1.9,8.2,3,12.5,3.5c4.3,0.6,8.6,0.7,13,0.4c4.3-0.2,8.6-0.8,12.9-1.6c2.1-0.4,4.3-0.8,6.4-1.3
	C250.8,247.7,252.9,247.2,255,246.6z"/>
</svg>
