<?xml version="1.0" encoding="utf-8"?>
<!-- Generator: Adobe Illustrator 23.0.1, SVG Export Plug-In . SVG Version: 6.00 Build 0)  -->
<svg version="1.1" id="Layer_1" xmlns="http://www.w3.org/2000/svg" xmlns:xlink="http://www.w3.org/1999/xlink" x="0px" y="0px"
	 viewBox="0 0 200 200" style="enable-background:new 0 0 200 200;" xml:space="preserve">
<style type="text/css">
	.st0{fill:#1F1F1F;}
	.st1{fill:#3A3A3A;}
	.st2{fill:#EF00BC;}
	.st3{fill:#FFFFFF;}
</style>
<path class="st0" d="M176.8,169.8L51.3,189.1c-3.8,0.6-7.4-2.1-8-5.9l-23.7-155c-0.6-3.8,2-7.4,5.9-8L151,1c3.8-0.6,7.4,2,8,5.9
	l23.7,155C183.3,165.6,180.6,169.2,176.8,169.8z"/>
<path class="st1" d="M176,164.2L50.4,183.4c-3.8,0.6-7.4-2.1-8-5.9L19.5,28.2c-0.6-3.8,2-7.4,5.9-8L151,1c3.8-0.6,7.4,2,8,5.9
	l22.9,149.4C182.4,160,179.8,163.6,176,164.2z"/>
<rect x="51.6" y="38.8" transform="matrix(0.9821 -0.1884 0.1884 0.9821 -13.9118 24.4155)" class="st2" width="139.8" height="93.3"/>
<polygon class="st3" points="69.8,137.6 83.5,134.9 72.3,76.5 125.2,110.2 166.3,58.5 177.5,116.9 192.2,114.1 177,34.9 54.6,58.3 
	"/>
</svg>
