<?xml version="1.0" encoding="utf-8"?>
<!-- Generator: Adobe Illustrator 23.0.1, SVG Export Plug-In . SVG Version: 6.00 Build 0)  -->
<svg version="1.1" id="Layer_1" xmlns="http://www.w3.org/2000/svg" xmlns:xlink="http://www.w3.org/1999/xlink" x="0px" y="0px"
	 viewBox="0 0 200 200" style="enable-background:new 0 0 200 200;" xml:space="preserve">
<style type="text/css">
	.st0{fill:#1F1F1F;}
	.st1{fill:#3A3A3A;}
	.st2{fill:#FFFF00;}
	.st3{fill:#3C9ADA;}
	.st4{fill:#FFFFFF;}
	.st5{fill:#FFFFFF;stroke:#5B5B5B;stroke-width:6;stroke-miterlimit:10;}
	.st6{enable-background:new    ;}
</style>
<path class="st0" d="M176.8,169.8L51.3,189.1c-3.8,0.6-7.4-2.1-8-5.9l-23.7-155c-0.6-3.8,2-7.4,5.9-8L151,1c3.8-0.6,7.4,2,8,5.9
	l23.7,155C183.3,165.6,180.6,169.2,176.8,169.8z"/>
<path class="st1" d="M176,164.2L50.4,183.4c-3.8,0.6-7.4-2.1-8-5.9L19.5,28.2c-0.6-3.8,2-7.4,5.9-8L151,1c3.8-0.6,7.4,2,8,5.9
	l22.9,149.4C182.4,160,179.8,163.6,176,164.2z"/>
<rect x="62.6" y="17.1" transform="matrix(0.9885 -0.1514 0.1514 0.9885 -7.9878 15.5651)" class="st2" width="71.2" height="86.2"/>
<rect x="100.7" y="34.5" transform="matrix(0.9885 -0.1514 0.1514 0.9885 -8.9715 21.9412)" class="st3" width="77.8" height="70.8"/>
<polygon class="st4" points="112.5,101.4 125.7,62 147.9,81.7 157,65 177.8,80.1 180,94.1 111.3,104.4 "/>
<circle class="st4" cx="155.1" cy="52.6" r="7.7"/>
<path class="st5" d="M141.1,146.7l-76.9,11.8c-3.5,0.5-6.8-1.9-7.4-5.4l-7-45.5c-0.5-3.5,1.9-6.8,5.4-7.4l76.9-11.8
	c3.5-0.5,6.8,1.9,7.4,5.4l7,45.5C147.1,142.8,144.7,146.2,141.1,146.7z"/>
<g class="st6">
	<path d="M81.7,123.3l0.3,2l-9.2,5.6l10.5,2.4l0.3,1.9l-13.3-3.1l-0.3-1.7L81.7,123.3z"/>
	<path d="M88.2,133.8c-0.1-0.4,0-0.7,0.2-1.1c0.2-0.3,0.5-0.5,0.9-0.6s0.7,0,1.1,0.3c0.3,0.2,0.5,0.5,0.6,0.9c0.1,0.4,0,0.7-0.2,1
		s-0.5,0.5-0.9,0.6c-0.4,0.1-0.7,0-1-0.2C88.4,134.5,88.2,134.2,88.2,133.8z"/>
	<path d="M94.7,132.8c-0.1-0.4,0-0.7,0.2-1.1c0.2-0.3,0.5-0.5,0.9-0.6s0.7,0,1.1,0.3c0.3,0.2,0.5,0.5,0.6,0.9c0.1,0.4,0,0.7-0.2,1
		s-0.5,0.5-0.9,0.6c-0.4,0.1-0.7,0-1-0.2C95,133.4,94.8,133.1,94.7,132.8z"/>
	<path d="M111.1,115l1.8-0.3l-4.7,19.1l-1.8,0.3L111.1,115z"/>
	<path d="M116.2,117.7l13.3,3.1l0.3,1.7l-11.6,7.1l-0.3-1.9l9.2-5.6l-10.5-2.4L116.2,117.7z"/>
</g>
</svg>
