<?xml version="1.0" encoding="utf-8"?>
<!-- Generator: Adobe Illustrator 22.1.0, SVG Export Plug-In . SVG Version: 6.00 Build 0)  -->
<svg version="1.1" id="Layer_1" xmlns="http://www.w3.org/2000/svg" xmlns:xlink="http://www.w3.org/1999/xlink" x="0px" y="0px"
	 viewBox="0 0 400 400" style="enable-background:new 0 0 400 400;" xml:space="preserve">
<style type="text/css">
	.st0{fill:url(#SVGID_1_);}
	.st1{fill:url(#SVGID_2_);}
	.st2{fill:#D69476;}
	.st3{fill:#CE866A;}
	.st4{fill:#BC735C;}
	.st5{fill:#BA0822;}
	.st6{fill:#E6A685;}
	.st7{fill:#EDB298;}
	.st8{fill:#DB9E86;}
	.st9{fill:#DD9C83;}
	.st10{fill:#E8AA97;}
	.st11{fill:#E8A691;}
	.st12{fill:#D19479;}
	.st13{fill:#DB9EA7;}
	.st14{fill:#E59188;}
	.st15{fill:#E89A9A;}
	.st16{fill:#EAACB3;}
	.st17{fill:#FFFFFF;}
	.st18{fill:#111111;}
	.st19{fill:#141414;}
	.st20{fill:#232323;}
	.st21{fill:#1C1C1C;}
	.st22{display:none;}
	.st23{display:inline;fill:#1C1C1C;}
	.st24{fill:none;}
	.st25{fill:#1E1917;}
	.st26{fill:#F9F9F9;}
</style>
<radialGradient id="SVGID_1_" cx="133.0715" cy="-214.2348" r="152.2794" fx="129.4146" fy="-218.9309" gradientTransform="matrix(0.9781 0.208 -9.717967e-02 0.457 39.6842 386.097)" gradientUnits="userSpaceOnUse">
	<stop  offset="0.4642" style="stop-color:#BE1E2D"/>
	<stop  offset="0.571" style="stop-color:#BF212F;stop-opacity:0.7793"/>
	<stop  offset="0.6394" style="stop-color:#C12938;stop-opacity:0.6382"/>
	<stop  offset="0.6969" style="stop-color:#C63845;stop-opacity:0.5193"/>
	<stop  offset="0.7484" style="stop-color:#CC4D59;stop-opacity:0.4128"/>
	<stop  offset="0.796" style="stop-color:#D36872;stop-opacity:0.3146"/>
	<stop  offset="0.8406" style="stop-color:#DD8991;stop-opacity:0.2224"/>
	<stop  offset="0.883" style="stop-color:#E8B1B6;stop-opacity:0.1349"/>
	<stop  offset="0.9224" style="stop-color:#F5DEE0;stop-opacity:5.329067e-02"/>
	<stop  offset="0.9482" style="stop-color:#FFFFFF;stop-opacity:0"/>
</radialGradient>
<path class="st0" d="M117.3,281.8c0,0-47.5,46.5-53.5,52s-11.5,15.5-16,22.3s-16,39.5-23.8,44h260.3c0,0-2.2-12.4-6.8-24.5
	c-4.8-12.6-11.8-28.3-11.8-28.3c-6.4,7.7-10.9,11.8-14.7,8.8S127,281.8,117.3,281.8z"/>
<linearGradient id="SVGID_2_" gradientUnits="userSpaceOnUse" x1="189.6725" y1="89" x2="189.6725" y2="59.477" gradientTransform="matrix(1 0 0 1 0 300)">
	<stop  offset="0" style="stop-color:#FFFFFF;stop-opacity:0"/>
	<stop  offset="0.1541" style="stop-color:#EEC5C9;stop-opacity:0.1541"/>
	<stop  offset="0.3092" style="stop-color:#E0939A;stop-opacity:0.3092"/>
	<stop  offset="0.4626" style="stop-color:#D46973;stop-opacity:0.4626"/>
	<stop  offset="0.611" style="stop-color:#CA4854;stop-opacity:0.611"/>
	<stop  offset="0.7529" style="stop-color:#C3313F;stop-opacity:0.7529"/>
	<stop  offset="0.8856" style="stop-color:#BF2332;stop-opacity:0.8856"/>
	<stop  offset="1" style="stop-color:#BE1E2D"/>
</linearGradient>
<path class="st1" d="M132,273.5c-12-8.5-26.5-15.8-18.3-22.3s47.3,8,47.3,8s120.5,37.6,105.8,92.8c-7.9,29.4-8.8,24.7-1,48h-3.5
	c0,0-10.5-25.8-11.7-43.5s-10-33-13-33.8S157.6,291.6,132,273.5z"/>
<g id="neck">
	<path class="st2" d="M117,208.2c0,0,11,27.3,11,45.7s0,39,0,39l104.2,59.2c0,0,5.2-62.9,16.2-83.5C259.3,247.9,117,208.2,117,208.2
		z"/>
	<path class="st3" d="M128,283.3v-29.5c0-6.7-1.5-14.5-3.3-21.9l-0.2-5.8c0,1,16,59.8,26.5,72L128,283.3z"/>
	<path class="st4" d="M240.9,290.7c-2.7,10.8-4.9,23.1-6.7,34.2c-0.8,1.9-1.5,3.4-1.9,4.3c-3,5.8-14.8-4-14.8-4l5.8-39
		C223.8,286.4,234,288.9,240.9,290.7z"/>
	<path class="st3" d="M166.8,269.5c0.3,0.8,18.5,25.4,28.5,36.7s12.8,22,12.8,22s13.5,5,15,0s10.8-31.6,10.8-31.6L166.8,269.5z"/>
</g>
<path class="st5" d="M252.3,356c0,0,3-31-24-37.7s-134-62.1-110.7-68.6c0,0-12.3-4.1-5.7,35.6C112,285.3,206.7,354,252.3,356z"/>
<g id="Face">
	<path class="st6" d="M119.3,161.5c0,0-15.8-9-20.5,0s-4,31,4.5,46.5s13.5,18.8,25.3,18.8c7,0,7.5-4,7.5-4s6.8,31.8,30.3,46.3
		c23.5,14.5,42,28.3,64.8,27.3s32.5-22.8,37-34c4.5-11.2,16-38.8,16.5-55.5s4-89.5-0.5-108.8s-7.9-34.6-17.4-34.6s-130-5.8-132,27.3
		S119.3,161.5,119.3,161.5z"/>
	<path class="st7" d="M160.1,174.6c7.5,9.6,25,30.3,54.1,4.3s-36.6-32-42.3-28.9C165.9,153.2,148.9,160.2,160.1,174.6z"/>
	<path class="st7" d="M245.2,147c10.2-11.4,29.9-5.8,31.1-14.8c1.1-8.3,0-60.5-15-54.5c0,0-27,40.5-58.5,47
		c-27.9,5.8-39.8,24.8-39.8,24.8s30.2-16.9,55.8,5.3c10.4,9,6.5,47.4,3.5,48.7c-3.5,1.5-11,0.8-9.8,10.1c0.9,7.3,7.2,1.1,12.9-0.2
		s8.4,4.6,13.9,3.8c4.3-0.6,6.3-4.1,8.1-6.8c3-4.4,8.1,3.5,9.8,2.1c3.3-2.7-6.3-7-10.4-15.1c-3-6.1,5.7-4.7,12.8,0.8
		c10.2,7.8,15.8,14,19.3,6.8s7.5-23.5-1.8-21.7s-29.5,8-34.2-2.2C236.5,167.2,238,155.1,245.2,147z"/>
	<path class="st8" d="M167.6,168.5c-8.9,9.3-8.9,16-3.5,17.9c5.3,1.9,22.8,10.6,39.3,1s6.5-19.4,3.8-22.6
		C202.1,158.8,178.1,157.6,167.6,168.5z"/>
	<path class="st7" d="M214.1,273.2c-4.3,8,12.3,18.4,23.5,14.1s24.4-18.3,25.9-27.8c1.5-9.5-7.9-12.8-12.9-10.8
		S221.6,259.3,214.1,273.2z"/>
	<path class="st7" d="M254.5,221.3c-0.4-2,8.5-3.6,14,4.1s-7.9,7-8,11.9s-13,2.4-18.1,3.1s-3.1-1.4,1.1-5.5S256.3,230.1,254.5,221.3
		z"/>
	<path class="st9" d="M279.5,157.4c-4.3-4.4-32.5-13.4-39.6,1.1c-1.5,3.1,0,18.9,4,23.2c2.4,2.6,5.6,7.3,29.6,2.1
		C291.4,179.9,283.7,161.7,279.5,157.4z"/>
	<path class="st10" d="M248.5,172c0,0,8.4,8.1,16.5,5.5s12.9-6.5,13.9-11.3S247.5,167,248.5,172z"/>
	<path class="st11" d="M174.8,176.2c0,0,8,8.5,16.2,6.3s13.2-5.8,14.4-10.5C206.7,167.3,174.1,171.2,174.8,176.2z"/>
	<path class="st12" d="M183.4,151.8c0,0,29.8,3.4,4.7,8.5c0,0,32.1,5.2,14.7,27.1c0,0,18.3,4,21.3-5.8
		C227,171.8,231.3,138,183.4,151.8z"/>
	<path class="st7" d="M151.3,188.7c-2.1-16.1,28.5,13.3,50.4-0.5c12.9-8.1-2,20.7,9.8,47.4C217.2,248.8,143.8,255,151.3,188.7z"/>
	<path class="st8" d="M215.2,206.8c0,0-9.8,4.4-4,18.1s11.9,15,4,20.1c0,0,12.9-5.7,24.7-4.5s18.3-16.5,13.5-22.1s-5.5-0.3-6.6,1.2
		s-5.1,6-9.5,6.3s-1.2-7-9.3-7.2c-5.1-0.1-4.1,5.9-9.9,5.5S209.2,209.7,215.2,206.8z"/>
	<path class="st12" d="M227.1,224.7c0,0,8.9,2,6.9-2.1c-1.9-4.1-4.2-4.1-6.3-3.9c-2.1,0.1-3.7,1.8-4.8,3.2
		C222,223.4,225.4,224.4,227.1,224.7z"/>
	<path class="st12" d="M250.6,214c7.8,0.8,5.1,6.2,3,8.9s-8.2-0.5-8.3-1.6c-0.2-1.1,1.5-2.9,1.5-2.9
		C247.9,217.2,249.1,213.8,250.6,214z"/>
</g>
<path class="st13" d="M253.2,245.7c-4.2,1.3-4.1,2.6-10.3,4.1c-6.8,1.6-13.9,2-22.9,1.6c-6.3-0.3-4.1-0.9-11.4-3.6
	c3,0.1,2.7,1.3,4.6,0.3c4.7-2.7,10.5-7.3,15.4-5.7c6.2,2,7.1,2,10.1,0c1.4-0.9,7.4-0.5,11.8,1C252.9,244.1,253.2,245.4,253.2,245.7z
	"/>
<path class="st14" d="M206.1,247.7c1.7,0,2.1-0.1,3.2,0.2c4.1,1.2,6.1,2.5,10.9,2.7c9.1,0.4,15.7,0.4,22.5-1.3
	c6.1-1.5,8.1-2.6,11.8-4.6c0.1,0.5-0.1,2.7-1.4,4.6c-1.5,2.2-8.8,9.1-19.3,10c-6.8,0.6-14.2-3-17.1-4.6c-1-0.5-2.1-2-4.1-3.2
	c-1.2-0.7-3.2-1.8-4.4-2.2C206.4,248.8,206.1,247.7,206.1,247.7z"/>
<path class="st15" d="M231.6,250.3c-0.7,0.1-7.4-1.3-10.5-0.6c-5.3,1.3-2.5,8.2,15,8.1c12.3-0.1,20.9-9.7,6.7-10.1
	C238,247.6,238.9,249.3,231.6,250.3z"/>
<path class="st16" d="M221.1,246.8c0-1.3,3.9-2.9,7.1-3c2.1-0.1,2.2,0.5,4.4,0.4c3.3-0.2,4.3-1.7,6.8-1.5c1.2,0.1,3.5,0.5,3.8,1.6
	c0.4,1.6-3.7,3.9-3.9,4C231.9,252.2,221.2,248.9,221.1,246.8z"/>
<path class="st17" d="M208,172.2c0,0-7.4,6.6-21,5.7c-13.6-0.9-14.7-1.4-14.7-3.7C172.2,169.2,187.7,156.2,208,172.2z"/>
<path class="st17" d="M273.9,168.9c1.6-1.1,1-4.4,0-5.5s-18.1-7.9-28.3,7C245.6,170.4,261.6,177.1,273.9,168.9z"/>
<path class="st18" d="M288.8,130.5c-1.3,3.3-1.8,17.9-1.9,27.8c-0.3-17.9-2.9-38.5-4.3-51c-1.8-14.8-10.3-33.5-14-29.8
	c-20.4,20.4-44.8,22.5-63.5,24.8c-11.7,1.4-37.5-1.1-37.5-1.1s-0.5-0.1-1.4-0.2c-1.7,3.8-4.8,7.8-9.6,8c-9.3,0.5-11-9.4-11-9.4
	s2.2,5.2,8,6.2c4.4,0.8,6-2.4,6.5-5.7c-4.4-0.7-9.8-1.5-12.8-2c-15.5-2.8-2.5,32.8-2.5,32.8s-9.3,2-12,18.5s7.8,65.5,7.8,65.5
	l-5.8,3.3l-2.3-8.8c-2.5-19.5-7-27.5-12.5-37.5s-9-9.5-11.8-12s-1.8-6-8-24.8s1.3-42.8,2.3-46.8s-1.8-3.8-3.5-5.8
	s-0.8-13.3,1.8-15.5s4-4.3,7.3-12.8S123.3,36,124,36s-3.5-0.3-3.8-1.8s10.8-10.8,21-16s14.3-0.3,14-1.5s1.5-4.8,15-8.3
	c20-5.2,44.3,4.5,43.3,2.3S204,6,204,6c11.3-0.3,17,5.3,24,5.8s7.5,7.3,12.3,8.8s4.3,0,9.5,2.5s9,3,9,3c-3-8-7.3-9.3-7.3-9.3
	c32.5,7,34.5,27.8,33.8,39s-2.3,29,0.3,34.3S290.8,125.5,288.8,130.5z"/>
<path class="st19" d="M187.4,282.3c0,0,31.9,12.8,40.6,12.2s16.8-1.9,31.1-13.9l-1.9,4.3l-0.3-0.6l-2.6,4.3l-0.3-1l-2.6,3.5
	l-0.1-1.4l-7.8,7.2l-1.2-0.5l-4.4,2.3l-0.1-0.9l-1.1,1.3l-1.2-0.8l-0.9,1.5l-0.9-1.2l-2.2,1.2l-1.3-0.9l-1.3,0.9l-2.9-1.1l-4,3.1
	l-1.8-2.6l-4.7-2.3C215.7,296.8,203.5,292.4,187.4,282.3z"/>
<path class="st20" d="M224.2,258.4l1.3,9h1.5l1.5,1.8h1l2.8,3.2l1.8-1.3l1,1.3l2-1.8l2.3-0.2v-3.5l1.3,1v-3l3.2-3.2l1.2-4.8
	c0,0-3.6,2-8.4,2.7C231.3,260.3,224.6,259.6,224.2,258.4z"/>
<path class="st21" d="M157.8,159.5c0,0,4.5-13.5,12.3-16.7c3.9-1.6,20.8-1.2,34.6,1.6c7.9,1.6,14.4,6.7,14.4,6.7l-1.8-3.9
	c0,0,5.8,4.8,5.8,7c0,8.3-15.4,1.1-30.2-0.6S160.2,152,157.8,159.5z"/>
<path class="st21" d="M286.5,149.8c0,0-0.7-10.7-11.2-11.6c-3.6-0.3-26.1,8.3-30.4,11.1c-0.7,0.5-0.7-2.1-0.7-2.1l-0.9,3.4
	c0,0-0.3-3.3-0.1-3.8c0,0-1.8,5.5-0.7,8.5C245.6,163.8,279.9,138.4,286.5,149.8z"/>
<g id="Strokes">
	<g class="st22">
		<path class="st23" d="M204.6,250.2c1,0.5,2,0.9,3.1,1.1c1.1,0.2,2.1,0.3,3.2,0.1c2.1-0.2,4.2-1,6.3-1.5c2.2-0.5,4.4-0.9,6.7-0.9
			c2.2,0,4.4,0,6.5-0.1c2.2-0.1,4.3-0.2,6.5-0.5c2.1-0.3,4.3-0.7,6.3-1.4c0.5-0.2,0.9-0.4,1.5-0.6c0.6-0.2,1.1-0.3,1.7-0.4
			c1.1-0.1,2.3-0.1,3.4,0c2.2,0.2,4.4,0.6,6.5,1.1c-2.2-0.2-4.4-0.4-6.5-0.4c-1.1,0-2.2,0.1-3.2,0.3c-0.5,0.1-1,0.2-1.5,0.4
			c-0.4,0.2-1,0.5-1.5,0.7c-2.1,0.9-4.3,1.3-6.5,1.7c-2.2,0.3-4.4,0.5-6.6,0.6c-2.2,0.1-4.4,0.1-6.6,0c-2.1-0.1-4.3,0.2-6.4,0.6
			c-2.1,0.4-4.3,1-6.5,1.1C208.6,252.1,206.4,251.4,204.6,250.2z"/>
	</g>
	<g>
		<path class="st21" d="M213.2,248c2.3-1.9,4.9-3.6,7.8-4.8c1.4-0.6,3-1.1,4.6-1.2c0.4,0,0.8,0,1.2,0c0.4,0.1,0.9,0.1,1.2,0.2
			c0.7,0.2,1.8,0.4,2.5,0.5c2.9,0.2,5.4-0.8,8.5-1.1c1.5-0.2,3.1-0.2,4.6-0.1c0.8,0.1,1.5,0.1,2.3,0.3c0.7,0.1,1.5,0.3,2.1,0.8
			c-0.3-0.2-0.7-0.2-1.1-0.3c-0.4-0.1-0.7-0.1-1.1-0.1c-0.7,0-1.5,0-2.2,0.1c-1.5,0.1-3,0.3-4.5,0.5c-1.9,0.8-5.4,1.6-9.1,1.2
			c-0.8-0.1-1.6-0.2-2.4-0.3c-0.4-0.1-0.7-0.1-1.1-0.2c-0.3-0.1-0.7,0-1-0.1c-1.4,0-2.8,0.4-4.2,0.8
			C218.6,245.2,215.8,246.5,213.2,248z"/>
	</g>
	<g>
		<path class="st21" d="M219.5,257.1c2.9,1,5.8,1.6,8.8,1.7c3,0.1,5.9-0.2,8.8-0.8c1.5-0.4,2.8-0.7,4.2-1.2c0.7-0.3,1.5-0.4,2.1-0.8
			c0.7-0.3,1.4-0.6,2.1-0.9c0.7-0.3,1.4-0.7,2-1l2-1c1.3-0.8,2.6-1.6,3.9-2.4c-1.1,1.1-2.2,2.1-3.4,3c-1.3,0.9-2.5,1.9-3.8,2.6
			c-2.7,1.6-5.6,2.8-8.7,3.5c-3.1,0.6-6.3,0.9-9.4,0.4C225.1,259.9,222.1,258.9,219.5,257.1z"/>
	</g>
	<g>
		<path class="st21" d="M222.2,205.1c-2,0.4-3.9,1.1-5.5,2.1c-1.7,1-3.1,2.4-3.7,4.2c-0.7,1.8-0.7,3.7-0.3,5.7
			c0.4,1.9,1.1,3.8,1.8,5.7c-1.1-1.7-2.1-3.5-2.6-5.5c-0.3-1-0.4-2-0.4-3.1s0.2-2.1,0.6-3.1c0.8-2,2.4-3.6,4.3-4.5
			C218.2,205.6,220.2,205.2,222.2,205.1z"/>
	</g>
	<g>
		<path class="st21" d="M222.2,223.6c0.6,0.3,1.1,0.6,1.7,0.9c0.6,0.3,1.1,0.5,1.7,0.7c0.6,0.2,1.1,0.4,1.7,0.5
			c0.6,0.1,1.2,0.2,1.9,0.4c-1.2,0.5-2.6,0.5-3.9,0.1c-0.6-0.2-1.2-0.5-1.8-1C223,224.7,222.5,224.2,222.2,223.6z"/>
	</g>
	<g>
		<path class="st21" d="M254.8,208.2c0.9,0.4,1.7,1.2,2.3,2c0.6,0.9,0.9,1.9,1,3c0.1,2.2-0.7,4.2-1.8,6c-1.1,1.8-2.4,3.4-4,4.7
			c-0.8,0.6-1.7,1.2-2.7,1.5s-2.2,0.1-2.9-0.7c0.8,0.7,1.9,0.7,2.8,0.3c0.9-0.3,1.7-1,2.4-1.6c1.4-1.4,2.6-3,3.6-4.7
			s1.7-3.6,1.8-5.5C257.3,211.4,256.4,209.5,254.8,208.2z"/>
	</g>
	<g>
		<path class="st21" d="M136.5,223.3c1.5,5,3.3,9.8,5.3,14.5c2.1,4.7,4.4,9.3,7.5,13.3c0.7,1,1.6,2,2.4,2.9c0.9,0.9,1.8,1.9,2.7,2.8
			c1.8,1.9,3.7,3.6,5.5,5.4c3.7,3.5,7.6,7,11.6,10.2c-4.5-2.6-8.7-5.7-12.7-9.1c-2-1.7-3.9-3.4-5.8-5.2c-0.9-0.9-1.8-1.8-2.8-2.8
			c-0.9-1-1.8-2-2.6-3.1c-1.6-2.1-2.9-4.4-4.2-6.7c-1.2-2.4-2.3-4.7-3.1-7.2C138.6,233.5,137.2,228.4,136.5,223.3z"/>
	</g>
	<g>
		<path class="st21" d="M108.3,159.8c-1.3-0.9-2.8-1.6-4.3-1.6s-2.8,1-3.6,2.3l-0.3,0.5l-0.2,0.5c-0.2,0.3-0.3,0.7-0.5,1
			c-0.2,0.7-0.5,1.4-0.7,2.2c-0.1,0.8-0.4,1.5-0.5,2.3l-0.4,2.3c-0.9,6.2-1,12.5-0.2,18.7c0.4,3.1,1.1,6.1,2.1,9.1
			c0.5,1.5,1,2.9,1.7,4.3l2,4.3c2.6,5.7,5.2,11.6,9.6,16.2c-2.5-2-4.5-4.5-6.3-7.2s-3.3-5.5-4.7-8.3c-0.7-1.4-1.4-2.8-2.2-4.3
			c-0.7-1.5-1.4-3-1.9-4.5c-1.1-3.1-1.8-6.2-2.2-9.4c-0.8-6.4-0.6-12.9,0.6-19.2c0.3-1.6,0.6-3.1,1.1-4.7c0.2-0.8,0.6-1.5,0.9-2.3
			c0.2-0.4,0.4-0.7,0.6-1.1l0.3-0.5l0.4-0.5c0.3-0.3,0.5-0.7,0.9-0.9c0.3-0.3,0.6-0.6,1-0.7l0.6-0.3c0.2-0.1,0.4-0.1,0.6-0.2
			c0.4-0.1,0.8-0.1,1.3-0.1C105.7,157.7,107.1,158.6,108.3,159.8z"/>
	</g>
	<g>
		<path class="st21" d="M128,267.5c-0.4-1.9-0.6-3.8-0.8-5.6c-0.2-1.9-0.3-3.7-0.3-5.6s0-3.7,0.1-5.6c0.1-1.9,0.2-3.7,0.4-5.6
			c0.7,1.8,1,3.7,1.2,5.6c0.2,1.9,0.3,3.8,0.4,5.6c0,1.9,0,3.8-0.1,5.6C128.6,263.7,128.4,265.6,128,267.5z"/>
	</g>
	<g>
		<path class="st21" d="M116,250.2c-0.6,0.8-0.7,1.8-0.6,2.7l0.1,0.7c0,0.2,0.1,0.5,0.2,0.7l0.2,0.7c0.1,0.2,0.2,0.4,0.3,0.6
			c0.4,0.9,0.9,1.6,1.5,2.4c0.6,0.8,1.2,1.5,1.8,2.2c2.6,2.8,5.6,5.1,8.7,7.4c3.1,2.2,6.4,4.2,9.7,6.2l5,2.8l5.1,2.7
			c13.5,7.2,26.9,14.7,40.6,21.5c6.8,3.4,13.8,6.7,20.8,9.7c3.5,1.5,7.1,2.9,10.7,4.2c3.6,1.2,7.3,2.4,10.9,3.8
			c3.6,1.5,7.1,3.2,10.2,5.7c0.8,0.6,1.5,1.3,2.3,1.9c0.7,0.7,1.4,1.4,2,2.2c0.6,0.8,1.2,1.6,1.8,2.4c0.5,0.8,1,1.7,1.5,2.6
			c1.8,3.5,2.8,7.3,3.4,11.2c0.7,3.8,0.7,7.7,0.7,11.6v0.5h-0.5c-2.9,0.3-5.7-0.1-8.4-0.6s-5.4-1.2-8.1-2c-2.7-0.8-5.3-1.7-7.8-2.7
			l-3.8-1.6l-3.8-1.7l3.8,1.5l3.9,1.4c2.6,0.9,5.2,1.8,7.9,2.4c2.7,0.7,5.3,1.3,8.1,1.7c1.4,0.2,2.7,0.3,4.1,0.4
			c1.3,0.1,2.8,0.1,4-0.1l-0.5,0.5c-0.1-3.8-0.2-7.6-1-11.3c-0.7-3.7-1.7-7.4-3.5-10.7c-1.8-3.3-4.3-6.1-7.2-8.4
			c-3-2.3-6.4-3.9-9.9-5.4c-3.5-1.4-7.1-2.5-10.8-3.7c-3.7-1.3-7.3-2.6-10.8-4.1c-7.1-3-14-6.4-20.9-9.8c-13.7-7-27.1-14.4-40.4-22
			c-6.7-3.8-13.4-7.6-19.5-12.2c-3-2.4-6-4.8-8.6-7.7c-0.6-0.8-1.2-1.5-1.8-2.3c-0.5-0.8-1.1-1.6-1.4-2.5c-0.1-0.2-0.2-0.4-0.3-0.7
			l-0.2-0.7c-0.1-0.2-0.1-0.5-0.2-0.7l-0.1-0.7C115.2,252,115.4,250.9,116,250.2z"/>
	</g>
	<g>
		<path class="st21" d="M267.1,350.5c1.9,2.6,3.6,5.3,5.1,8.1c1.5,2.8,2.9,5.7,4.2,8.6c1.2,3,2.4,6,3.2,9c0.9,3.1,1.6,6.2,1.8,9.4
			c-1.1-3-2.2-6-3.3-8.9c-1.2-2.9-2.4-5.8-3.6-8.8C272.1,362.2,269.5,356.4,267.1,350.5z"/>
	</g>
	<g>
		<path class="st21" d="M134.7,300.9c-2-1.1-4-2.4-5.9-3.5c-2-1.2-3.9-2.4-5.9-3.6c-1.9-1.2-3.9-2.5-5.8-3.7
			c-1.9-1.3-3.8-2.5-5.7-3.9l1.2-0.1c-3,3.2-6.1,6.3-9.2,9.5c-3.1,3.1-6.2,6.3-9.3,9.3c-3.1,3.1-6.3,6.2-9.5,9.2
			c-1.6,1.5-3.2,3-4.8,4.5c-1.6,1.5-3.2,3-4.9,4.5c1.4-1.7,2.9-3.3,4.4-4.9s2.9-3.3,4.4-4.9c3-3.2,6-6.4,9-9.6s6.1-6.3,9.2-9.5
			c3.1-3.1,6.2-6.3,9.3-9.4l0.6-0.6l0.6,0.5c1.7,1.4,3.7,2.7,5.5,4.1l5.6,4c1.9,1.3,3.7,2.7,5.6,4.1
			C131,298.2,132.9,299.5,134.7,300.9z"/>
	</g>
	<g>
		<path class="st21" d="M230.4,240.3c-0.4-0.8-0.6-1.6-0.8-2.3c-0.2-0.8-0.3-1.5-0.4-2.3c-0.1-0.8-0.2-1.5-0.2-2.3s0-1.6,0.1-2.4
			c0.7,0.6,1.1,1.3,1.4,2.1c0.3,0.8,0.5,1.6,0.6,2.4C231.4,237,231.3,238.7,230.4,240.3z"/>
	</g>
	<g>
		<path class="st21" d="M238.5,232.8c0.2,0.6,0.3,1,0.4,1.5c0,0.4,0.1,0.9,0,1.3c0,0.4-0.1,0.8-0.2,1.1c-0.1,0.4-0.2,0.7-0.2,1.4
			c-0.6-0.1-1.1-0.6-1.3-1.1s-0.3-1.1-0.3-1.6s0.2-1,0.4-1.4C237.7,233.5,238,233,238.5,232.8z"/>
	</g>
	<g>
		<path class="st21" d="M245.6,207.6c1.2,0.7,2.2,1.6,3.1,2.6c0.9,1.1,1.5,2.4,1.7,3.9c0.1,0.7,0,1.5-0.1,2.2
			c-0.2,0.7-0.4,1.4-0.7,2.1c-0.6,1.3-1.4,2.5-2.4,3.5c-0.9,1-2,2-3.2,2.8c-0.6,0.4-1.2,0.8-1.8,1.1s-1.4,0.6-2.2,0.7
			c-1.6,0.1-3-0.6-4.2-1.4c-1.2-0.8-2.2-1.8-3-2.9l0,0l0,0c-0.5-1-1.3-1.9-2.4-2.4c-1.1-0.5-2.3-0.4-3.5,0c1.1-0.6,2.4-0.8,3.7-0.5
			s2.3,1.3,3,2.4v-0.1c0.9,0.9,1.9,1.8,3,2.5s2.3,1.1,3.4,1c1.1-0.1,2.2-0.9,3.3-1.6c1-0.8,2-1.6,2.9-2.6c1.7-1.9,3.2-4.2,3.2-6.7
			c0-1.2-0.4-2.5-1.1-3.6C247.5,209.5,246.6,208.5,245.6,207.6z"/>
	</g>
	<g>
		<path class="st24" d="M243.1,156.3"/>
	</g>
	<g>
		<path class="st21" d="M242.1,152.6c-1.1,4.9-1.8,9.8-1.8,14.8c0,2.5,0.2,4.9,0.6,7.4c0.3,2.5,1.1,4.8,1.8,7.2
			c-1.3-2.2-2.4-4.5-3-7c-0.1-0.3-0.2-0.6-0.2-0.9l-0.2-0.9c-0.1-0.6-0.2-1.3-0.3-1.9c-0.1-1.3-0.2-2.5-0.2-3.8
			c0-2.6,0.2-5.1,0.8-7.6C240.2,157.3,241,154.8,242.1,152.6z"/>
	</g>
	<g>
		<path class="st21" d="M271,253.1c0.9-2.7,1.8-5.3,2.7-8l2.8-8c1.8-5.3,3.7-10.6,5.1-16c0.7-2.7,1.3-5.4,1.7-8.2
			c0.4-2.8,0.5-5.6,0.7-8.4c0.1-2.8,0.2-5.6,0.3-8.4c0.1-2.8,0-5.6-0.1-8.4c0.6,5.6,0.7,11.2,0.6,16.9c-0.1,2.8-0.2,5.6-0.5,8.4
			c-0.3,2.8-0.9,5.6-1.6,8.3c-1.4,5.5-3.3,10.8-5.3,16C275.2,242.6,273.1,247.8,271,253.1z"/>
	</g>
	<g>
		<path class="st21" d="M218.8,153.4c1.8,1.3,3,3.1,4.1,4.9c1.1,1.9,1.7,4,2.2,6.1s0.7,4.3,0.8,6.4c0,1.1-0.1,2.1-0.1,3.2
			c-0.1,1.1-0.2,2.1-0.4,3.2c-0.1-1.1-0.1-2.1-0.1-3.2c-0.1-1.1-0.1-2.1-0.2-3.2c-0.2-1-0.2-2.1-0.4-3.1l-0.2-1.6l-0.3-1.5
			c-0.5-2-1.1-4-2-6c-0.4-0.9-0.9-1.9-1.5-2.8C220.2,155,219.5,154.1,218.8,153.4z"/>
	</g>
	<g>
		<path class="st21" d="M191,183.3c-2.4,0.9-5.2,0.7-7.7,0s-4.9-2-7-3.5c-0.5-0.4-1-0.8-1.5-1.2s-1-0.8-1.5-1.3s-0.9-0.8-1.4-1.4
			c-0.5-0.6-0.8-1.6-0.6-2.3c0.4-1.5,1.3-2.5,2.3-3.4s2-1.6,3.2-2.2c-0.9,0.9-1.8,1.8-2.6,2.7s-1.5,2-1.7,3c0,0.5,0.1,0.9,0.4,1.2
			c0.4,0.4,0.9,0.8,1.4,1.2l0.7,0.6l0.7,0.6c0.5,0.4,1,0.8,1.5,1.1c2,1.5,4.1,2.7,6.5,3.6C186,183.1,188.5,183.6,191,183.3z"/>
	</g>
	<g>
		<path class="st21" d="M196.4,165.8c1.1,0.2,2.2,0.6,3.2,0.9c1.1,0.4,2.1,0.8,3.1,1.3s2,1,3,1.6s1.9,1.3,2.8,2.1l0.5,0.5l-0.4,0.5
			c-0.6,0.7-1.2,1.2-1.8,1.7s-1.4,0.9-2.1,1.3c-1.5,0.7-3.1,1.1-4.7,1.1c0.8-0.3,1.5-0.5,2.2-0.9c0.7-0.3,1.4-0.7,2-1.1
			c0.6-0.4,1.2-0.9,1.8-1.4s1.1-1.1,1.5-1.6l0.1,1c-0.8-0.7-1.7-1.3-2.6-1.9c-0.9-0.6-1.8-1.2-2.8-1.7L196.4,165.8z"/>
	</g>
	<g>
		<path class="st21" d="M274.9,168.1c0-1.7-0.6-3.4-1.7-4.3c-0.6-0.4-1.3-0.7-2.1-0.9c-0.9-0.2-1.7-0.4-2.5-0.6
			c-1.6-0.5-3.2-0.9-4.9-1.1c-1.6-0.2-3.3-0.1-5,0.2c1.5-0.9,3.3-1.3,5.1-1.4c1.8,0,3.6,0.4,5.2,0.8l2.5,0.7
			c0.9,0.3,1.8,0.7,2.5,1.4s1.1,1.6,1.2,2.5C275.3,166.3,275.2,167.2,274.9,168.1z"/>
	</g>
	<g>
		<path class="st21" d="M246.8,168.8c-0.3,0.6-0.6,1.2-0.9,1.7l-0.1-0.4c1.6,0.4,3.3,0.8,4.9,1.2c1.6,0.4,3.3,0.7,4.9,1
			s3.2,0.3,4.9,0.3s3.3-0.1,5-0.2c-1.6,0.7-3.3,1.1-5,1.3s-3.5,0.3-5.2,0c-1.7-0.2-3.4-0.7-5-1.2s-3.2-1.1-4.7-2l-0.3-0.2l0.2-0.2
			C245.8,169.8,246.3,169.3,246.8,168.8z"/>
	</g>
	<g>
		<path class="st21" d="M275.6,172.5c-1,1.5-2.4,2.8-3.9,3.8s-3.2,1.8-5,2.2s-3.7,0.7-5.5,0.5c-0.9,0-1.8-0.3-2.7-0.5
			c-0.9-0.2-1.7-0.6-2.6-0.9c0.9,0,1.8,0.2,2.7,0.2c0.9,0,1.7,0.1,2.6,0c1.7,0,3.4-0.3,5.1-0.7s3.3-1,4.8-1.8
			C272.7,174.5,274.2,173.6,275.6,172.5z"/>
	</g>
</g>
<path class="st25" d="M182.7,165.3c-1.3,0.4-2.3,4-2.5,5.4c-0.5,3.3,1.3,7.4,6.8,7.3c8.4-0.1,8.9-5.7,7.5-8.8
	C193.2,166.3,190.5,163,182.7,165.3z"/>
<path class="st25" d="M253.7,163c-1.1,0.5-3.2,2-3.2,3.4c-0.1,3.5,1.9,7.5,6.7,7c7.3-0.8,7.2-6.7,5.7-9.8
	C261.4,160.7,260.3,159.9,253.7,163z"/>
<ellipse class="st26" cx="191.6" cy="171.1" rx="1.7" ry="4.4"/>
<circle class="st26" cx="184.5" cy="169.4" r="2.3"/>
<circle class="st26" cx="253.7" cy="165.9" r="1.7"/>
<ellipse class="st26" cx="259.6" cy="167.6" rx="1.7" ry="3.4"/>
<g>
	<path class="st21" d="M203.2,248.2c2.1-0.8,4.4-0.8,6.6-0.3c0.5,0.2,1.1,0.4,1.6,0.6c0.5,0.2,1,0.4,1.5,0.6c1,0.3,2.1,0.5,3.2,0.6
		c2.2,0.2,4.3-0.1,6.5-0.6c1.1-0.2,2.2-0.5,3.3-0.6c1.2-0.1,2.3,0,3.4,0.3c1.1,0.2,2.2,0.6,3.2,0.8c1,0.2,2.1,0.2,3.1-0.1
		c1-0.3,2-0.9,3.1-1.2c1.1-0.4,2.3-0.5,3.4-0.4c2.2,0,4.4-0.3,6.5-0.8c1.1-0.2,2.1-0.5,3.2-0.9c1-0.4,2-0.9,2.9-1.6
		c-0.7,0.8-1.7,1.4-2.7,1.9c-1,0.5-2.1,0.8-3.1,1.2c-2.2,0.6-4.4,1-6.6,1.1c-1.1,0-2.1,0.2-3.2,0.5c-1,0.3-2,0.9-3.1,1.2
		c-1.1,0.4-2.4,0.5-3.5,0.2c-1.1-0.2-2.2-0.6-3.3-0.8c-1.1-0.2-2.1-0.4-3.2-0.3c-1,0.1-2.1,0.3-3.2,0.5c-2.2,0.4-4.5,0.7-6.7,0.5
		c-1.1-0.1-2.2-0.4-3.3-0.8c-0.5-0.2-1-0.4-1.6-0.7c-0.5-0.2-1-0.4-1.5-0.6C207.7,247.7,205.4,247.6,203.2,248.2z"/>
</g>
</svg>
