<?xml version="1.0" encoding="utf-8"?>
<!-- Generator: Adobe Illustrator 22.1.0, SVG Export Plug-In . SVG Version: 6.00 Build 0)  -->
<svg version="1.1" id="myAvatarShape" xmlns="http://www.w3.org/2000/svg" xmlns:xlink="http://www.w3.org/1999/xlink" x="0px"
	 y="0px" viewBox="0 0 400 400" style="enable-background:new 0 0 400 400;" xml:space="preserve">
<style type="text/css">
	.st0{fill:#8C031E;}
	.st1{fill:#D69476;}
	.st2{fill:#CE866A;}
	.st3{fill:#BC735C;}
	.st4{fill:#BA0822;}
	.st5{fill:#E6A685;}
	.st6{fill:#111111;}
	.st7{fill:#141414;}
</style>
<g id="myAvatarShapeBody">
	<path class="st0" d="M132,273.5c-12-8.5-26.5-15.8-18.3-22.3s47.3,8,47.3,8s120.5,37.6,105.8,92.8c-0.7,6.9-14.5,4-14.5,4
		c-1.2-17.7-11.7-32.5-14.7-33.3S157.6,291.6,132,273.5z"/>
	<path class="st1" d="M117,208.2c0,0,11,27.3,11,45.7s0,39,0,39l104.2,59.2c0,0,5.2-62.9,16.2-83.5C259.3,247.9,117,208.2,117,208.2
		z"/>
	<path class="st2" d="M128,283.3v-29.5c0-6.7-1.5-14.5-3.3-21.9l-0.2-5.8c0,1,16,59.8,26.5,72L128,283.3z"/>
	<path class="st3" d="M240.9,290.7c-2.7,10.8-4.9,23.1-6.7,34.2c-0.8,1.9-1.5,3.4-1.9,4.3c-3,5.8-14.8-4-14.8-4l5.8-39
		C223.8,286.4,234,288.9,240.9,290.7z"/>
	<path class="st2" d="M166.8,269.5c0.3,0.8,18.5,25.4,28.5,36.7s12.8,22,12.8,22s13.5,5,15,0s10.8-31.6,10.8-31.6L166.8,269.5z"/>
	<path class="st4" d="M252.3,356c0,0,3-31-24-37.7s-134-62.1-110.7-68.6c0,0-12.3-4.1-5.7,35.6C112,285.3,206.7,354,252.3,356z"/>
</g>
<g id="myAvatarShapeFace">
	<path class="st5" d="M119.6,164c0,0-16.1-8.5-20.5,0.7s-2.9,31.1,6.1,46.3s14.1,18.3,25.9,17.9c7-0.2,7.4-4.3,7.4-4.3
		s7.9,31.6,31.8,45.2c24,13.7,42.9,26.9,65.7,25.1s31.7-23.9,35.8-35.2c4.1-11.3,14.7-39.3,14.6-56s1-89.6-4.2-108.7
		s-9.1-34.3-18.6-34s-130.1-1.4-131,31.7C131.8,126,119.6,164,119.6,164z"/>
	<path class="st6" d="M227.7,257.3l1.6,9l1.5-0.1l1.6,1.7h1l2.9,3.1l1.8-1.4l1,1.3l1.9-1.9l2.3-0.3l-0.1-3.5l1.3,1l-0.1-3l3.1-3.3
		l1-4.8c0,0-3.5,2.1-8.3,3C234.9,258.9,228.2,258.5,227.7,257.3z"/>
	<path class="st7" d="M191.7,282.4c0,0,32.3,11.7,41,10.8c8.7-0.9,16.7-2.5,30.6-14.9l-1.8,4.4l-0.3-0.6l-2.5,4.4l-0.3-1L256,289
		l-0.1-1.4l-7.6,7.5l-1.2-0.5l-4.3,2.4l-0.1-0.9l-1.1,1.3l-1.2-0.8l-0.8,1.5l-0.9-1.2l-2.2,1.3l-1.3-0.9l-1.3,0.9l-2.9-1l-3.9,3.2
		l-1.9-2.5l-4.8-2.1C220.5,295.9,208.2,292,191.7,282.4z"/>
	<path class="st6" d="M288,127.3c-1.2,3.3-1.2,18-1,27.8c-0.9-17.9-4.2-38.4-6-50.8c-2.3-14.7-11.4-33.1-15-29.3
		c-19.7,21.1-44,24-62.6,26.9c-11.6,1.8-37.5,0.2-37.5,0.2s-0.5-0.1-1.4-0.2c-1.6,3.9-4.5,8-9.3,8.3c-9.3,0.8-11.3-9-11.3-9
		s2.4,5.1,8.2,5.9c4.4,0.7,5.9-2.6,6.3-5.9c-4.4-0.6-9.8-1.2-12.9-1.6c-15.6-2.3-1.4,32.9-1.4,32.9s-9.2,2.3-11.4,18.9
		c-2.1,16.6,10,65.2,10,65.2l-5.7,3.5l-2.6-8.7c-3.2-19.4-7.9-27.2-13.8-37.1c-5.8-9.8-9.3-9.2-12.2-11.6c-2.9-2.4-2-5.9-8.8-24.5
		s-0.1-42.8,0.7-46.9c0.9-4-1.9-3.7-3.7-5.7S95.4,72.3,97.9,70c2.5-2.3,3.9-4.4,6.9-13s14.6-18.7,15.3-18.7c0.7,0-3.5-0.2-3.9-1.7
		s10.4-11.2,20.4-16.7s14.3-0.8,13.9-2c-0.3-1.2,1.3-4.8,14.7-8.8c19.8-5.9,44.4,3,43.4,0.8S199,5.7,199,5.7
		c11.3-0.7,17.2,4.7,24.2,5s7.7,7,12.6,8.4c4.8,1.3,4.3-0.1,9.6,2.2s9.1,2.7,9.1,2.7c-3.3-7.9-7.6-9-7.6-9
		c32.7,5.9,35.4,26.6,35.1,37.8c-0.3,11.2-1.3,29.1,1.5,34.3C286.2,92.2,289.8,122.2,288,127.3z"/>
</g>
</svg>
