<?xml version="1.0" encoding="utf-8"?>
<!-- Generator: Adobe Illustrator 23.0.1, SVG Export Plug-In . SVG Version: 6.00 Build 0)  -->
<svg version="1.1" id="Layer_1" xmlns="http://www.w3.org/2000/svg" xmlns:xlink="http://www.w3.org/1999/xlink" x="0px" y="0px"
	 viewBox="0 0 200 200" style="enable-background:new 0 0 200 200;" xml:space="preserve">
<style type="text/css">
	.st0{fill:#1F1F1F;}
	.st1{fill:#3A3A3A;}
	.st2{fill:#3C9ADA;}
	.st3{fill:#FFFFFF;}
</style>
<path class="st0" d="M176.8,169.8L51.3,189.1c-3.8,0.6-7.4-2.1-8-5.9l-23.7-155c-0.6-3.8,2-7.4,5.9-8L151,1c3.8-0.6,7.4,2,8,5.9
	l23.7,155C183.3,165.6,180.6,169.2,176.8,169.8z"/>
<path class="st1" d="M176,164.2L50.4,183.4c-3.8,0.6-7.4-2.1-8-5.9L19.5,28.2c-0.6-3.8,2-7.4,5.9-8L151,1c3.8-0.6,7.4,2,8,5.9
	l22.9,149.4C182.4,160,179.8,163.6,176,164.2z"/>
<rect x="61.5" y="20.8" transform="matrix(0.9885 -0.1514 0.1514 0.9885 -9.977 19.2187)" class="st2" width="119.5" height="108.7"/>
<polygon class="st3" points="79.6,123.5 99.9,63 134,93.2 147.9,67.6 179.9,90.8 183.3,112.3 77.8,128.1 "/>
<circle class="st3" cx="145" cy="48.6" r="11.8"/>
</svg>
